<?xml version="1.0" encoding="UTF-8"?>
<svg version="1.1" xmlns="http://www.w3.org/2000/svg" width="500" height="500">
<path d="M0 0 C1.8125 0.0625 1.8125 0.0625 4 1 C7.23235216 7.31206546 8.85614087 14.17923865 10.6875 21 C11.00783203 22.14984375 11.32816406 23.2996875 11.65820312 24.484375 C15.38626832 38.28378051 15.38626832 38.28378051 12.75 43.44921875 C12.1725 44.18785156 11.595 44.92648438 11 45.6875 C10.35675781 46.54214844 9.71351563 47.39679688 9.05078125 48.27734375 C8.37402344 49.17582031 7.69726562 50.07429688 7 51 C5.7164263 52.90815802 4.4459413 54.8251743 3.1875 56.75 C-0.16913544 61.81087312 -3.65446181 66.7614066 -7.19824219 71.69140625 C-10.18810662 75.85363052 -13.14185117 80.03890063 -16.0625 84.25 C-16.79597656 85.30703125 -17.52945313 86.3640625 -18.28515625 87.453125 C-19.97929183 89.8514294 -19.97929183 89.8514294 -21 92 C-21.66 92 -22.32 92 -23 92 C-23.66 93.65 -24.32 95.3 -25 97 C-26.98 96.505 -26.98 96.505 -29 96 C-29.843812 91.11236053 -30.67961117 86.22343677 -31.50854492 81.33325195 C-31.79061563 79.67566513 -32.07473667 78.01842567 -32.36108398 76.36157227 C-34.05085915 66.57508109 -35.49447983 56.931527 -36 47 C-36.66 47 -37.32 47 -38 47 C-37.71125 48.22589844 -37.4225 49.45179688 -37.125 50.71484375 C-35.81379163 56.62336106 -34.90156964 62.57991329 -34 68.5625 C-33.74053589 70.27264282 -33.74053589 70.27264282 -33.47583008 72.01733398 C-30.41933707 92.351283 -30.41933707 92.351283 -30 98 C-31 99 -31 99 -32.68530273 99.01513672 C-40.54505628 98.29933032 -48.13082058 96.51149777 -55.78637695 94.67138672 C-58.05952809 94.12571341 -60.33513735 93.59142876 -62.61132812 93.05859375 C-83.62509559 88.09826607 -83.62509559 88.09826607 -87 84 C-87.93022156 82.0226593 -87.93022156 82.0226593 -88.7175293 79.74731445 C-89.01761398 78.89244949 -89.31769867 78.03758453 -89.62687683 77.15681458 C-89.93949966 76.23494858 -90.2521225 75.31308258 -90.57421875 74.36328125 C-90.90291458 73.4098735 -91.23161041 72.45646576 -91.57026672 71.47416687 C-92.26299566 69.45574589 -92.95113031 67.43574314 -93.63500977 65.41430664 C-94.67938517 62.33641531 -95.74590815 59.26683668 -96.81445312 56.19726562 C-97.4857395 54.23223644 -98.15570434 52.2667552 -98.82421875 50.30078125 C-99.14291428 49.38903641 -99.4616098 48.47729156 -99.78996277 47.53791809 C-101.59342522 42.1353424 -102.43521673 37.7009728 -102 32 C-101.67 31.67 -101.34 31.34 -101 31 C-86.13380992 31.1315592 -69.94340506 33.90380186 -56 39 C-56.15597656 38.16855469 -56.31195313 37.33710938 -56.47265625 36.48046875 C-56.66730469 35.39378906 -56.86195312 34.30710938 -57.0625 33.1875 C-57.25972656 32.10855469 -57.45695312 31.02960938 -57.66015625 29.91796875 C-58 27 -58 27 -57 24 C-56.814375 22.2675 -56.814375 22.2675 -56.625 20.5 C-56 17 -56 17 -54.9375 15.0625 C-51.82208158 13.35404474 -48.49744339 14 -45 14 C-43.37485532 12.54166642 -43.37485532 12.54166642 -42 11 C-39.0625 10.5625 -39.0625 10.5625 -36 11 C-33.0230806 13.31538175 -31.61499668 15.6623402 -30 19 C-29.01979625 20.0194119 -28.02196992 21.02246356 -27 22 C-25.64560332 24.70879335 -25.93498549 27.00933268 -26 30 C-16.66848582 20.76775724 -7.29931619 10.94897428 0 0 Z M-43 16 C-45.30359337 16.3782019 -47.57761026 16.50503963 -49.90625 16.65625 C-52.21512259 16.82631807 -52.21512259 16.82631807 -54 19 C-54.58402133 21.41417872 -54.58402133 21.41417872 -54 24 C-50.79181757 27.20818243 -47.14364247 29.19841632 -43 31 C-42.01 31 -41.02 31 -40 31 C-36.61027237 26.91618528 -33.96841617 22.80027858 -34.0625 17.4375 C-34.77683537 15.08778514 -34.77683537 15.08778514 -36 14 C-39.961168 13.60909667 -39.961168 13.60909667 -43 16 Z M-34.625 28.0625 C-38.42263837 31.74345016 -38.42263837 31.74345016 -39.1875 36.875 C-38.09560298 40.09814159 -38.09560298 40.09814159 -36 43 C-34.67837119 41.75965588 -33.36799547 40.50731374 -32.0625 39.25 C-31.33160156 38.55390625 -30.60070312 37.8578125 -29.84765625 37.140625 C-27.95273193 34.945237 -27.27160812 33.85188522 -27 31 C-27.588562 28.645752 -28.24592899 26.30657014 -29 24 C-31.16951708 24 -33.16745665 26.71100083 -34.625 28.0625 Z M-55 30 C-54.34 33.3 -53.68 36.6 -53 40 C-51.04486839 40.696553 -49.08577524 41.38199565 -47.125 42.0625 C-46.03445312 42.44535156 -44.94390625 42.82820313 -43.8203125 43.22265625 C-41.0768238 44.31707847 -41.0768238 44.31707847 -39 43 C-39.49254641 39.6592504 -40.22703298 36.89352201 -42 34 C-45.93377451 31.72913926 -50.40588688 30 -55 30 Z " fill="#394399" transform="translate(148,207)"/>
<path d="M0 0 C0.68578125 -0.00386719 1.3715625 -0.00773438 2.078125 -0.01171875 C5.06885206 -0.00601126 7.90528188 0.10795544 10.85180664 0.63818359 C14.07502507 1.1366014 16.99000351 1.16123718 20.24609375 1.046875 C21.99696289 1.00820312 21.99696289 1.00820312 23.78320312 0.96875 C26.21594871 0.90633857 28.64834357 0.8282543 31.08007812 0.734375 C42.14153374 0.53913695 42.14153374 0.53913695 46.65405273 4.60571289 C52.65872033 11.38370064 52.56682796 17.128558 52.375 25.9375 C52.37371094 27.08154297 52.37242187 28.22558594 52.37109375 29.40429688 C52.28125934 37.84374066 52.28125934 37.84374066 50 40.125 C47.87109375 40.35546875 47.87109375 40.35546875 45.4375 40.3125 C44.63183594 40.30605469 43.82617188 40.29960937 42.99609375 40.29296875 C41 40.125 41 40.125 40 39.125 C39.854088 37.21159731 39.7726707 35.29320039 39.71875 33.375 C39.66267578 31.62703125 39.66267578 31.62703125 39.60546875 29.84375 C39.53515625 27.36458333 39.46484375 24.88541667 39.39453125 22.40625 C39.33845703 20.65828125 39.33845703 20.65828125 39.28125 18.875 C39.25095703 17.79734375 39.22066406 16.7196875 39.18945312 15.609375 C39.27571437 13.18361658 39.27571437 13.18361658 38 12.125 C33.93264157 11.69272234 33.93264157 11.69272234 30.33447266 13.29638672 C28.51067626 15.79551496 28.58544154 17.55630328 28.5234375 20.6328125 C28.4925 21.70144531 28.4615625 22.77007812 28.4296875 23.87109375 C28.41164063 24.98613281 28.39359375 26.10117187 28.375 27.25 C28.32423006 29.46103093 28.26975043 31.67198089 28.2109375 33.8828125 C28.18459229 35.35451904 28.18459229 35.35451904 28.15771484 36.85595703 C28 39.125 28 39.125 27 40.125 C23.37 40.125 19.74 40.125 16 40.125 C15.67 30.225 15.34 20.325 15 10.125 C12.69 9.135 10.38 8.145 8 7.125 C8.474375 7.7025 8.94875 8.28 9.4375 8.875 C12.95868741 13.94550988 12.4639486 20.17802251 12 26.125 C10.50576044 32.44316256 6.57679059 36.38716448 1.3125 39.9375 C-3.92643814 41.8156099 -9.0401648 42.35657526 -14.28125 40.17578125 C-19.95414082 36.82073202 -24.15357461 32.58748887 -26 26.125 C-26.32307692 19.77115385 -26.32307692 19.77115385 -25 17.125 C-25.48726563 17.43953125 -25.97453125 17.7540625 -26.4765625 18.078125 C-34.7662686 23.08209305 -44.22925001 26.52531904 -54 26.125 C-54 27.115 -54 28.105 -54 29.125 C-48.08128155 30.88590438 -48.08128155 30.88590438 -42.0625 30.375 C-39.88108012 29.16489447 -39.88108012 29.16489447 -38 27.125 C-35.17042171 27.48776645 -32.70915709 28.22194764 -30 29.125 C-29.25 31.0625 -29.25 31.0625 -29 33.125 C-29.495 34.115 -29.495 34.115 -30 35.125 C-30.66 35.125 -31.32 35.125 -32 35.125 C-32 35.785 -32 36.445 -32 37.125 C-38.30040633 40.92901892 -43.63365666 42.50423024 -51 41.125 C-55.7277106 39.04907294 -59.05234521 36.48725376 -62 32.25 C-63.9542209 26.14305969 -65.01293235 19.3555049 -63 13.125 C-61.22718265 10.24909629 -59.21507241 7.67199457 -57 5.125 C-55.081875 5.2796875 -55.081875 5.2796875 -53.125 5.4375 C-52.04605469 5.52451172 -52.04605469 5.52451172 -50.9453125 5.61328125 C-49 6.125 -49 6.125 -47 9.125 C-48.52994792 10.36197917 -50.05989583 11.59895833 -51.58984375 12.8359375 C-53.13266437 14.0916391 -53.13266437 14.0916391 -54 16.125 C-51.87465341 15.98430804 -49.74972471 15.83729079 -47.625 15.6875 C-45.84996094 15.56568359 -45.84996094 15.56568359 -44.0390625 15.44140625 C-41.08481099 15.31415064 -41.08481099 15.31415064 -39 14.125 C-39.6332228 11.08305711 -39.6332228 11.08305711 -41.625 10.25 C-42.40875 9.87875 -43.1925 9.5075 -44 9.125 C-45.26565117 8.31563509 -46.51480996 7.48013157 -47.75 6.625 C-48.36359375 6.2021875 -48.9771875 5.779375 -49.609375 5.34375 C-50.06828125 4.9415625 -50.5271875 4.539375 -51 4.125 C-51 3.465 -51 2.805 -51 2.125 C-46.59084252 -0.07957874 -41.82123453 0.87445387 -37.3125 2.25 C-33.41152652 4.45809819 -31.62735824 6.54223877 -29 10.125 C-24.18189937 8.41590548 -20.63282172 5.75952812 -16.59765625 2.68359375 C-11.47084699 -0.39249181 -5.82588426 -0.03285273 0 0 Z M-14 12.125 C-16.14230459 14.76717566 -16.90614322 16.5970556 -17.5 19.9375 C-16.79649818 24.4223241 -14.96059864 27.69822975 -12 31.125 C-9.69628579 32.30278312 -9.69628579 32.30278312 -7 32.125 C-6.3090625 32.13660156 -5.618125 32.14820313 -4.90625 32.16015625 C-2.93761462 32.1844176 -0.96850215 32.15836444 1 32.125 C3.4280876 26.76378258 3.69022828 21.93514941 3 16.125 C1.02171226 12.24755603 -0.40860028 11.38784432 -4.375 9.625 C-8.76944907 9.01886909 -10.40116485 9.58945705 -14 12.125 Z " fill="#4C55A1" transform="translate(398,246.875)"/>
<path d="M0 0 C1.89947803 0.95311887 3.74202552 2.01813318 5.5703125 3.1015625 C5.5703125 2.4415625 5.5703125 1.7815625 5.5703125 1.1015625 C8.09506712 -0.16081481 9.88231716 0.00299846 12.6953125 0.0390625 C13.60539062 0.04808594 14.51546875 0.05710938 15.453125 0.06640625 C16.50113281 0.08380859 16.50113281 0.08380859 17.5703125 0.1015625 C17.64644106 6.70345668 17.69894533 13.30523744 17.73510742 19.9074707 C17.75018432 22.15295644 17.77064903 24.39841279 17.79663086 26.64379883 C17.83306168 29.87328349 17.85005005 33.10237844 17.86328125 36.33203125 C17.87876511 37.33429245 17.89424896 38.33655365 17.91020203 39.3691864 C17.91231807 48.15298855 17.91231807 48.15298855 14.5703125 52.1015625 C6.98425488 57.91215982 -0.10399621 57.67529071 -9.4296875 57.1015625 C-13.73581585 56.26535715 -16.67877608 54.83321978 -19.8671875 51.7265625 C-21.4296875 49.1015625 -21.4296875 49.1015625 -22.4296875 44.1015625 C-17.8096875 44.1015625 -13.1896875 44.1015625 -8.4296875 44.1015625 C-8.0996875 44.7615625 -7.7696875 45.4215625 -7.4296875 46.1015625 C-3.67315636 47.04069528 -1.24197781 47.38409826 2.4453125 46.1015625 C5.38130501 43.33827543 5.34806066 41.02801161 5.5703125 37.1015625 C4.9515625 37.5759375 4.3328125 38.0503125 3.6953125 38.5390625 C-1.05882906 40.91613328 -6.33729761 41.93979273 -11.5625 40.5234375 C-13.4296875 39.7265625 -13.4296875 39.7265625 -16.4296875 38.1015625 C-17.0896875 37.7715625 -17.7496875 37.4415625 -18.4296875 37.1015625 C-18.4296875 36.4415625 -18.4296875 35.7815625 -18.4296875 35.1015625 C-19.0896875 35.1015625 -19.7496875 35.1015625 -20.4296875 35.1015625 C-24.38887599 27.52746279 -26.14915711 19.98161402 -23.67578125 11.5234375 C-19.33305898 1.23714632 -11.15752207 -4.12577182 0 0 Z M-10.4296875 13.1015625 C-11.95168193 17.66754579 -12.17685484 21.50048964 -10.1171875 25.9140625 C-8.44576542 28.32194768 -8.44576542 28.32194768 -5.4296875 30.1015625 C-1.67594133 30.3286036 1.59896826 29.91623831 4.5078125 27.4765625 C6.32758761 23.4088299 6.96095601 19.7813296 5.9453125 15.4140625 C4.19570232 12.47153628 2.4678858 10.92096899 -0.4296875 9.1015625 C-5.01683549 8.1841329 -7.18282608 9.94489168 -10.4296875 13.1015625 Z " fill="#3E4796" transform="translate(201.4296875,246.8984375)"/>
<path d="M0 0 C3.90097348 2.20809819 5.68514176 4.29223877 8.3125 7.875 C13.2348238 6.13719034 16.8804962 3.36826732 21.0078125 0.23828125 C21.76835937 -0.21160156 22.52890625 -0.66148437 23.3125 -1.125 C24.3025 -0.795 25.2925 -0.465 26.3125 -0.125 C25.6525 0.205 24.9925 0.535 24.3125 0.875 C24.3125 2.195 24.3125 3.515 24.3125 4.875 C26.7875 5.865 26.7875 5.865 29.3125 6.875 C27.3125 8.875 27.3125 8.875 25.3125 9.75 C22.77821878 11.17553318 22.22786354 12.12890937 21.3125 14.875 C20.57356444 20.41701672 22.12430235 23.48045729 25.3125 27.875 C27.62444193 28.97116096 27.62444193 28.97116096 30.3125 28.875 C31.529375 28.936875 32.74625 28.99875 34 29.0625 C37.39214439 29.23936613 37.39214439 29.23936613 39.3125 26.875 C39.3125 29.185 39.3125 31.495 39.3125 33.875 C41.2925 34.37 41.2925 34.37 43.3125 34.875 C37.27829297 38.45082639 32.35452233 40.17162633 25.3125 38.875 C19.23245535 36.32597785 15.12863169 32.32565021 12.0625 26.5 C10.94977391 22.6054587 10.46199609 18.57600781 12.3125 14.875 C11.82523437 15.18953125 11.33796875 15.5040625 10.8359375 15.828125 C2.5462314 20.83209305 -6.91675001 24.27531904 -16.6875 23.875 C-16.6875 24.865 -16.6875 25.855 -16.6875 26.875 C-10.76878155 28.63590438 -10.76878155 28.63590438 -4.75 28.125 C-2.56858012 26.91489447 -2.56858012 26.91489447 -0.6875 24.875 C2.14207829 25.23776645 4.60334291 25.97194764 7.3125 26.875 C8.0625 28.8125 8.0625 28.8125 8.3125 30.875 C7.8175 31.865 7.8175 31.865 7.3125 32.875 C6.6525 32.875 5.9925 32.875 5.3125 32.875 C5.3125 33.535 5.3125 34.195 5.3125 34.875 C-0.98790633 38.67901892 -6.32115666 40.25423024 -13.6875 38.875 C-18.4152106 36.79907294 -21.73984521 34.23725376 -24.6875 30 C-26.6417209 23.89305969 -27.70043235 17.1055049 -25.6875 10.875 C-23.91468265 7.99909629 -21.90257241 5.42199457 -19.6875 2.875 C-17.769375 3.0296875 -17.769375 3.0296875 -15.8125 3.1875 C-14.73355469 3.27451172 -14.73355469 3.27451172 -13.6328125 3.36328125 C-11.6875 3.875 -11.6875 3.875 -9.6875 6.875 C-11.21744792 8.11197917 -12.74739583 9.34895833 -14.27734375 10.5859375 C-15.82016437 11.8416391 -15.82016437 11.8416391 -16.6875 13.875 C-14.56215341 13.73430804 -12.43722471 13.58729079 -10.3125 13.4375 C-8.53746094 13.31568359 -8.53746094 13.31568359 -6.7265625 13.19140625 C-3.77231099 13.06415064 -3.77231099 13.06415064 -1.6875 11.875 C-2.3207228 8.83305711 -2.3207228 8.83305711 -4.3125 8 C-5.09625 7.62875 -5.88 7.2575 -6.6875 6.875 C-7.95315117 6.06563509 -9.20230996 5.23013157 -10.4375 4.375 C-11.05109375 3.9521875 -11.6646875 3.529375 -12.296875 3.09375 C-12.75578125 2.6915625 -13.2146875 2.289375 -13.6875 1.875 C-13.6875 1.215 -13.6875 0.555 -13.6875 -0.125 C-9.27834252 -2.32957874 -4.50873453 -1.37554613 0 0 Z " fill="#444B98" transform="translate(360.6875,249.125)"/>
<path d="M0 0 C3 1 3 1 4.75390625 4.38671875 C5.36781376 5.81561844 5.97023104 7.24949644 6.5625 8.6875 C6.86607422 9.39583984 7.16964844 10.10417969 7.48242188 10.83398438 C8.0748342 12.2317677 8.651215 13.63646655 9.21044922 15.04785156 C9.90152945 16.75653354 10.68404391 18.42764837 11.48046875 20.08984375 C12 23 12 23 10.296875 26.4296875 C9.46902756 27.5934347 8.61915244 28.74176879 7.75 29.875 C7.32847656 30.46796875 6.90695313 31.0609375 6.47265625 31.671875 C5.38165667 33.16554634 4.19685186 34.58972351 3 36 C2.34 36 1.68 36 1 36 C0.79375 36.66 0.5875 37.32 0.375 38 C-0.82872718 40.62631386 -2.07731893 42.8626382 -3.6875 45.25 C-4.37392578 46.27867187 -4.37392578 46.27867187 -5.07421875 47.328125 C-7.88022465 49.76417069 -10.41177259 49.9977001 -14 50 C-18.50108976 49.68008844 -22.96250317 49.13621754 -27.4375 48.5625 C-28.64599609 48.41490234 -29.85449219 48.26730469 -31.09960938 48.11523438 C-34.06750567 47.7515791 -37.03410892 47.37960606 -40 47 C-39.18885478 43.16987053 -37.82121676 41.37852324 -35.125 38.5 C-33.91070312 37.18902344 -33.91070312 37.18902344 -32.671875 35.8515625 C-31.34929688 34.44003906 -31.34929688 34.44003906 -30 33 C-28.12011921 30.96280148 -26.24753907 28.91894593 -24.375 26.875 C-23.90980957 26.36839844 -23.44461914 25.86179688 -22.96533203 25.33984375 C-16.38483486 18.32217332 -16.38483486 18.32217332 -10.4375 10.78125 C-9.963125 10.1934375 -9.48875 9.605625 -9 9 C-8.34 9 -7.68 9 -7 9 C-6.773125 8.443125 -6.54625 7.88625 -6.3125 7.3125 C-4.64103234 4.36753316 -2.44723648 2.31843456 0 0 Z " fill="#394398" transform="translate(87,190)"/>
<path d="M0 0 C6.35103652 0.6947838 12.30575102 2.3670259 18.4375 4.125 C19.51829834 4.43123291 20.59909668 4.73746582 21.71264648 5.05297852 C33.15969222 8.30640173 44.58355651 11.64095182 56 15 C56 19.20760639 55.97688569 19.52628412 53.41015625 22.41796875 C52.87326172 23.03220703 52.33636719 23.64644531 51.78320312 24.27929688 C51.21537109 24.90900391 50.64753906 25.53871094 50.0625 26.1875 C49.49853516 26.82880859 48.93457031 27.47011719 48.35351562 28.13085938 C44.5093471 32.4906529 44.5093471 32.4906529 43 34 C31.80069217 33.27520137 14.52909735 31.24424778 6.15332031 23.23388672 C3.31890184 19.14007279 2.11901137 14.8042171 1 10 C0.62101562 9.0821875 0.24203125 8.164375 -0.1484375 7.21875 C-1.21148815 4.44896665 -0.80235429 2.80824001 0 0 Z " fill="#3B4598" transform="translate(92,188)"/>
<path d="M0 0 C0.96421875 0.00644531 1.9284375 0.01289063 2.921875 0.01953125 C5.25 0.1875 5.25 0.1875 6.25 1.1875 C6.32205511 2.87358966 6.33386068 4.56250659 6.3125 6.25 C6.30347656 7.16910156 6.29445313 8.08820313 6.28515625 9.03515625 C6.27355469 9.74542969 6.26195312 10.45570313 6.25 11.1875 C5.115625 11.166875 3.98125 11.14625 2.8125 11.125 C-0.56575674 10.77172523 -0.56575674 10.77172523 -1.75 12.1875 C-1.98363881 14.03641946 -2.16303635 15.89238031 -2.3125 17.75 C-2.39628906 18.76191406 -2.48007812 19.77382812 -2.56640625 20.81640625 C-2.65728516 21.99009766 -2.65728516 21.99009766 -2.75 23.1875 C-0.44 23.1875 1.87 23.1875 4.25 23.1875 C4.25 26.4875 4.25 29.7875 4.25 33.1875 C1.94 33.1875 -0.37 33.1875 -2.75 33.1875 C-2.74214478 34.49738892 -2.74214478 34.49738892 -2.73413086 35.83374023 C-2.71712249 39.06339273 -2.70456631 42.29302245 -2.69506836 45.52270508 C-2.6900292 46.92245228 -2.68319784 48.3221942 -2.67456055 49.72192383 C-2.6624768 51.72995777 -2.65730193 53.73802957 -2.65234375 55.74609375 C-2.64448853 57.56065063 -2.64448853 57.56065063 -2.63647461 59.41186523 C-2.75 62.1875 -2.75 62.1875 -3.75 63.1875 C-5.60287502 63.25976502 -7.45833878 63.2713122 -9.3125 63.25 C-10.32441406 63.24097656 -11.33632812 63.23195313 -12.37890625 63.22265625 C-13.55259766 63.20525391 -13.55259766 63.20525391 -14.75 63.1875 C-15.86984119 59.82797644 -15.778066 57.51839543 -15.62890625 53.98828125 C-15.58056641 52.77978516 -15.53222656 51.57128906 -15.48242188 50.32617188 C-15.42634766 49.06353516 -15.37027344 47.80089844 -15.3125 46.5 C-15.26029297 45.22576172 -15.20808594 43.95152344 -15.15429688 42.63867188 C-15.02449555 39.48803961 -14.8895244 36.33771423 -14.75 33.1875 C-16.73 33.1875 -18.71 33.1875 -20.75 33.1875 C-20.75 29.8875 -20.75 26.5875 -20.75 23.1875 C-18.77 23.1875 -16.79 23.1875 -14.75 23.1875 C-14.79640625 22.09050781 -14.8428125 20.99351562 -14.890625 19.86328125 C-14.9281579 18.4088815 -14.96455643 16.95445217 -15 15.5 C-15.03351563 14.77876953 -15.06703125 14.05753906 -15.1015625 13.31445312 C-15.17027579 9.55240036 -14.99834605 7.60957436 -13.046875 4.29296875 C-8.96263068 0.54907812 -5.44187673 -0.08089276 0 0 Z " fill="#363F95" transform="translate(262.75,223.8125)"/>
<path d="M0 0 C4.23243381 3.0072556 4.23243381 3.0072556 5.375 4.6875 C5.3125 6.75 5.3125 6.75 4.375 8.6875 C1.41954879 10.79853658 -1.06355901 10.88535783 -4.625 10.6875 C-4.625 10.0275 -4.625 9.3675 -4.625 8.6875 C-7.925 8.6875 -11.225 8.6875 -14.625 8.6875 C-14.625 9.6775 -14.625 10.6675 -14.625 11.6875 C-13.820625 11.935 -13.01625 12.1825 -12.1875 12.4375 C1.09740803 17.09887124 1.09740803 17.09887124 4.375 21.6875 C6.21231781 25.84143592 6.69658992 28.65940388 5.3125 32.9375 C3.73290944 36.55098815 2.08901468 38.14754269 -1.625 39.6875 C-7.62963068 41.49658745 -14.76543596 41.76130433 -20.625 39.375 C-25.17965587 36.81300607 -25.17965587 36.81300607 -26.625 34.6875 C-26.625 33.3675 -26.625 32.0475 -26.625 30.6875 C-21.44921875 27.46484375 -21.44921875 27.46484375 -19.625 26.6875 C-16.625 27.6875 -16.625 27.6875 -15.3125 29.25 C-12.83916874 31.35691181 -10.7612632 30.89658421 -7.625 30.6875 C-7.295 29.0375 -6.965 27.3875 -6.625 25.6875 C-7.924375 25.48125 -9.22375 25.275 -10.5625 25.0625 C-16.00255211 23.85742516 -20.45216853 21.3751185 -24.625 17.6875 C-26.42443864 14.84863408 -26.62674611 13.78179005 -26.5625 10.3125 C-25.30290042 5.4420483 -23.18465771 2.3487348 -18.85546875 -0.4609375 C-13.05160698 -2.67677264 -5.73076548 -2.07493233 0 0 Z " fill="#464E9C" transform="translate(326.625,247.3125)"/>
<path d="M0 0 C1.50046875 0.00386719 1.50046875 0.00386719 3.03125 0.0078125 C4.0315625 0.00523437 5.031875 0.00265625 6.0625 0 C8.53125 0.1328125 8.53125 0.1328125 9.53125 1.1328125 C9.60369053 3.15245449 9.61502188 5.17448374 9.59375 7.1953125 C9.58472656 8.30003906 9.57570313 9.40476563 9.56640625 10.54296875 C9.55480469 11.39761719 9.54320312 12.25226563 9.53125 13.1328125 C12.00625 13.6278125 12.00625 13.6278125 14.53125 14.1328125 C14.53125 16.7728125 14.53125 19.4128125 14.53125 22.1328125 C12.88125 22.4628125 11.23125 22.7928125 9.53125 23.1328125 C9.53910522 24.38940674 9.53910522 24.38940674 9.54711914 25.67138672 C9.56415014 28.77620186 9.57669482 31.88099321 9.58618164 34.98583984 C9.59369036 36.99187801 9.6063947 38.99789452 9.61914062 41.00390625 C9.62397461 42.88916016 9.62397461 42.88916016 9.62890625 44.8125 C9.63676147 46.55635986 9.63676147 46.55635986 9.64477539 48.33544922 C9.53125 51.1328125 9.53125 51.1328125 8.53125 53.1328125 C4.57125 53.1328125 0.61125 53.1328125 -3.46875 53.1328125 C-3.46875 43.2328125 -3.46875 33.3328125 -3.46875 23.1328125 C-5.11875 23.1328125 -6.76875 23.1328125 -8.46875 23.1328125 C-9.46875 22.1328125 -9.46875 22.1328125 -9.56640625 20.06640625 C-9.55480469 19.24269531 -9.54320312 18.41898438 -9.53125 17.5703125 C-9.52222656 16.74402344 -9.51320313 15.91773438 -9.50390625 15.06640625 C-9.49230469 14.42832031 -9.48070312 13.79023438 -9.46875 13.1328125 C-7.48875 13.1328125 -5.50875 13.1328125 -3.46875 13.1328125 C-3.48035156 12.27816406 -3.49195313 11.42351562 -3.50390625 10.54296875 C-3.51292969 9.43824219 -3.52195312 8.33351562 -3.53125 7.1953125 C-3.54285156 6.09316406 -3.55445313 4.99101562 -3.56640625 3.85546875 C-3.43474599 0.18478064 -3.43474599 0.18478064 0 0 Z " fill="#3C4493" transform="translate(280.46875,233.8671875)"/>
<path d="M0 0 C3.96 0 7.92 0 12 0 C12.16763742 5.21424594 12.32819469 10.42864348 12.48217773 15.64331055 C12.53556608 17.41745885 12.59089298 19.19154991 12.64819336 20.96557617 C12.73019269 23.51468565 12.80523144 26.06391928 12.87890625 28.61328125 C12.90594131 29.40712723 12.93297638 30.20097321 12.96083069 31.01887512 C13.05004432 34.30636716 13.04883406 36.85349781 12 40 C10.18757948 40.02687279 8.37504767 40.04633715 6.5625 40.0625 C5.55316406 40.07410156 4.54382813 40.08570313 3.50390625 40.09765625 C1 40 1 40 0 39 C-0.08865208 36.1156618 -0.11521296 33.25537842 -0.09765625 30.37109375 C-0.0962413 29.50686295 -0.09482635 28.64263214 -0.09336853 27.75221252 C-0.08775239 24.98060708 -0.07519719 22.2090812 -0.0625 19.4375 C-0.05748708 17.5631522 -0.05292381 15.68880315 -0.04882812 13.81445312 C-0.03777772 9.20960456 -0.0205023 4.60481579 0 0 Z " fill="#404999" transform="translate(226,247)"/>
<path d="M0 0 C3.75693709 0.5367053 4.76263205 1.48052692 7.0625 4.4375 C7.74518138 5.76270503 8.4132041 7.09562182 9.0625 8.4375 C9.8359375 9.0871875 9.8359375 9.0871875 10.625 9.75 C12.89027629 12.40923739 12.87698374 15.03636862 13.0625 18.4375 C12.4025 19.0975 11.7425 19.7575 11.0625 20.4375 C10.4025 18.4575 9.7425 16.4775 9.0625 14.4375 C6.12693215 16.91057138 3.40503016 19.38688686 1.0625 22.4375 C1.00278101 26.14007755 1.43056103 28.17362206 3.0625 31.4375 C5.3725 29.1275 7.6825 26.8175 10.0625 24.4375 C10.0625 27.58834005 9.60776333 28.77621316 8.0625 31.4375 C7.4025 32.0975 6.7425 32.7575 6.0625 33.4375 C6.34980055 35.77694736 6.68186779 38.1114143 7.0625 40.4375 C6.7325 40.7675 6.4025 41.0975 6.0625 41.4375 C5.83174918 42.78497084 5.65096937 44.14127565 5.5 45.5 C5.355625 46.799375 5.21125 48.09875 5.0625 49.4375 C4.7325 49.4375 4.4025 49.4375 4.0625 49.4375 C3.5675 43.0025 3.5675 43.0025 3.0625 36.4375 C2.4025 36.4375 1.7425 36.4375 1.0625 36.4375 C1.0625 35.7775 1.0625 35.1175 1.0625 34.4375 C-0.4225 34.9325 -0.4225 34.9325 -1.9375 35.4375 C-2.5975 35.1075 -3.2575 34.7775 -3.9375 34.4375 C-3.9375 33.7775 -3.9375 33.1175 -3.9375 32.4375 C-2.9475 32.4375 -1.9575 32.4375 -0.9375 32.4375 C-1.5975 29.4675 -2.2575 26.4975 -2.9375 23.4375 C-3.70835938 23.23253906 -4.47921875 23.02757812 -5.2734375 22.81640625 C-6.27632812 22.54699219 -7.27921875 22.27757812 -8.3125 22 C-9.31023437 21.73316406 -10.30796875 21.46632812 -11.3359375 21.19140625 C-13.9375 20.4375 -13.9375 20.4375 -15.9375 19.4375 C-15.2775 22.7375 -14.6175 26.0375 -13.9375 29.4375 C-15.2575 29.7675 -16.5775 30.0975 -17.9375 30.4375 C-18.2675 29.7775 -18.5975 29.1175 -18.9375 28.4375 C-18.2775 28.1075 -17.6175 27.7775 -16.9375 27.4375 C-17.288125 26.24125 -17.63875 25.045 -18 23.8125 C-18.95190486 19.99817699 -18.84213873 17.30277458 -17.9375 13.4375 C-17.81375 12.220625 -17.69 11.00375 -17.5625 9.75 C-16.9375 6.4375 -16.9375 6.4375 -15.875 4.5 C-12.75958158 2.79154474 -9.43494339 3.4375 -5.9375 3.4375 C-2.63940275 0.39310254 -2.63940275 0.39310254 0 0 Z M-3.9375 5.4375 C-6.24109337 5.8157019 -8.51511026 5.94253963 -10.84375 6.09375 C-13.15262259 6.26381807 -13.15262259 6.26381807 -14.9375 8.4375 C-15.52152133 10.85167872 -15.52152133 10.85167872 -14.9375 13.4375 C-11.72931757 16.64568243 -8.08114247 18.63591632 -3.9375 20.4375 C-2.9475 20.4375 -1.9575 20.4375 -0.9375 20.4375 C2.45222763 16.35368528 5.09408383 12.23777858 5 6.875 C4.28566463 4.52528514 4.28566463 4.52528514 3.0625 3.4375 C-0.898668 3.04659667 -0.898668 3.04659667 -3.9375 5.4375 Z " fill="#6E6892" transform="translate(108.9375,217.5625)"/>
<path d="M0 0 C0.71542969 0.00064453 1.43085938 0.00128906 2.16796875 0.00195312 C5.32659104 0.02852098 7.85930662 0.18226887 10.875 1.1875 C10.875 1.8475 10.875 2.5075 10.875 3.1875 C10.215 3.1875 9.555 3.1875 8.875 3.1875 C8.875 3.8475 8.875 4.5075 8.875 5.1875 C7.555 5.1875 6.235 5.1875 4.875 5.1875 C5.43228913 8.53123475 6.22673889 11.22062999 7.875 14.1875 C8.535 14.1875 9.195 14.1875 9.875 14.1875 C9.875 18.4775 9.875 22.7675 9.875 27.1875 C9.545 26.5275 9.215 25.8675 8.875 25.1875 C7.885 25.8475 6.895 26.5075 5.875 27.1875 C5.51137182 29.39475073 5.51137182 29.39475073 5.6875 31.8125 C5.71457031 32.62976563 5.74164063 33.44703125 5.76953125 34.2890625 C5.82173828 35.22878906 5.82173828 35.22878906 5.875 36.1875 C4.555 36.1875 3.235 36.1875 1.875 36.1875 C1.90118408 35.60782471 1.92736816 35.02814941 1.9543457 34.4309082 C2.05870612 31.78755125 2.12344327 29.14462801 2.1875 26.5 C2.22939453 25.58798828 2.27128906 24.67597656 2.31445312 23.73632812 C2.39797028 19.1428848 2.42348145 16.92543964 -0.38671875 13.14453125 C-2.74846441 11.45660746 -4.49754117 10.37204672 -7.25 9.5625 C-10.32997803 8.63970503 -11.9775533 7.60171027 -14.125 5.1875 C-13.125 2.1875 -13.125 2.1875 -11.0703125 1.01171875 C-7.35141079 -0.02898186 -3.82602162 -0.0662062 0 0 Z " fill="#3C469A" transform="translate(398.125,246.8125)"/>
<path d="M0 0 C2.31 0.33 4.62 0.66 7 1 C7.33 7.93 7.66 14.86 8 22 C9.98 22.33 11.96 22.66 14 23 C14.66 24.98 15.32 26.96 16 29 C6.94903339 29.63268893 6.94903339 29.63268893 3.1875 27.125 C2.465625 26.42375 1.74375 25.7225 1 25 C-0.64928325 24.29141905 -2.31481553 23.61836521 -4 23 C-4.08097324 20.72975032 -4.13917704 18.45867925 -4.1875 16.1875 C-4.22230469 14.92292969 -4.25710937 13.65835937 -4.29296875 12.35546875 C-4 9 -4 9 -2.48828125 7.05078125 C-1.75158203 6.53064453 -1.75158203 6.53064453 -1 6 C-1.33 5.34 -1.66 4.68 -2 4 C-1.0625 1.875 -1.0625 1.875 0 0 Z " fill="#3A4499" transform="translate(183,256)"/>
<path d="M0 0 C4.23243381 3.0072556 4.23243381 3.0072556 5.375 4.6875 C5.3125 6.75 5.3125 6.75 4.375 8.6875 C1.41954879 10.79853658 -1.06355901 10.88535783 -4.625 10.6875 C-4.625 10.0275 -4.625 9.3675 -4.625 8.6875 C-5.285 8.6875 -5.945 8.6875 -6.625 8.6875 C-6.625 8.0275 -6.625 7.3675 -6.625 6.6875 C-8.605 6.6875 -10.585 6.6875 -12.625 6.6875 C-12.625 6.0275 -12.625 5.3675 -12.625 4.6875 C-13.615 5.1825 -13.615 5.1825 -14.625 5.6875 C-15.35575648 8.0015622 -16.02638258 10.33578869 -16.625 12.6875 C-17.615 12.6875 -18.605 12.6875 -19.625 12.6875 C-20.285 12.0275 -20.945 11.3675 -21.625 10.6875 C-23.605 11.6775 -23.605 11.6775 -25.625 12.6875 C-26.12382898 8.4973366 -25.82420015 6.97523354 -23.375 3.4375 C-17.05093371 -2.88656629 -8.22681508 -2.97867442 0 0 Z " fill="#414792" transform="translate(326.625,247.3125)"/>
<path d="M0 0 C1.97338867 1.14208984 1.97338867 1.14208984 4 3 C4.4699707 5.61962891 4.4699707 5.61962891 4.42578125 8.7265625 C4.41740234 9.8403125 4.40902344 10.9540625 4.40039062 12.1015625 C4.37138672 13.26429688 4.34238281 14.42703125 4.3125 15.625 C4.30283203 16.79546875 4.29316406 17.9659375 4.28320312 19.171875 C4.16766332 27.83233668 4.16766332 27.83233668 3 29 C0.03 29 -2.94 29 -6 29 C-6 20.75 -6 12.5 -6 4 C-5.01 3.67 -4.02 3.34 -3 3 C-1.33289654 1.50014391 -1.33289654 1.50014391 0 0 Z " fill="#3A4190" transform="translate(445,258)"/>
<path d="M0 0 C0.66 0 1.32 0 2 0 C2 4.62 2 9.24 2 14 C3.65 14 5.3 14 7 14 C7.99 11.69 8.98 9.38 10 7 C10.33 7 10.66 7 11 7 C11 14.92 11 22.84 11 31 C7.37 31 3.74 31 0 31 C0 20.77 0 10.54 0 0 Z " fill="#3A418C" transform="translate(414,256)"/>
<path d="M0 0 C1.9375 1.125 1.9375 1.125 3 3 C3.65451338 9.10879153 3.65451338 9.10879153 1.7578125 11.69140625 C-1.04000094 13.77422292 -3.5183007 13.47587261 -6.8984375 13.34375 C-9 13 -9 13 -11.125 11.4375 C-12.39144915 7.90953451 -11.97805885 5.58621578 -11 2 C-7.79952331 -1.93904824 -4.62362797 -1.17692348 0 0 Z " fill="#4E539C" transform="translate(236,226)"/>
<path d="M0 0 C1.27875 0.103125 2.5575 0.20625 3.875 0.3125 C4.95394531 0.39951172 4.95394531 0.39951172 6.0546875 0.48828125 C8 1 8 1 10 4 C8.47005208 5.23697917 6.94010417 6.47395833 5.41015625 7.7109375 C3.86733563 8.9666391 3.86733563 8.9666391 3 11 C6.96 11 10.92 11 15 11 C14.67 12.65 14.34 14.3 14 16 C11.03 15.505 11.03 15.505 8 15 C8 14.67 8 14.34 8 14 C4.7 14 1.4 14 -2 14 C-2.66 12.68 -3.32 11.36 -4 10 C-4.33 14.62 -4.66 19.24 -5 24 C-5.33 24 -5.66 24 -6 24 C-8.03966006 11.30878187 -8.03966006 11.30878187 -4.59375 5.71875 C-3.1234733 3.74913405 -1.6125684 1.85420709 0 0 Z " fill="#333E90" transform="translate(341,252)"/>
<path d="M0 0 C4.62 0 9.24 0 14 0 C14.33 0.66 14.66 1.32 15 2 C15.99 2.66 16.98 3.32 18 4 C16.35 4.66 14.7 5.32 13 6 C13.66 6 14.32 6 15 6 C14.67 7.98 14.34 9.96 14 12 C17.96 12 21.92 12 26 12 C26 11.34 26 10.68 26 10 C28.475 10.495 28.475 10.495 31 11 C25.16642066 14.62432776 16.95710569 13.7744794 10.4453125 12.5 C5.99921718 11.0235608 3.38252879 9.00264836 1 5 C0.67 3.35 0.34 1.7 0 0 Z " fill="#424A90" transform="translate(179,291)"/>
<path d="M0 0 C3.90097348 2.20809819 5.68514176 4.29223877 8.3125 7.875 C7.6525 8.535 6.9925 9.195 6.3125 9.875 C3.1875 9.5 3.1875 9.5 0.3125 8.875 C-0.0175 10.855 -0.3475 12.835 -0.6875 14.875 C-1.6775 14.215 -2.6675 13.555 -3.6875 12.875 C-3.0275 12.545 -2.3675 12.215 -1.6875 11.875 C-2.3207228 8.83305711 -2.3207228 8.83305711 -4.3125 8 C-5.09625 7.62875 -5.88 7.2575 -6.6875 6.875 C-7.95315117 6.06563509 -9.20230996 5.23013157 -10.4375 4.375 C-11.05109375 3.9521875 -11.6646875 3.529375 -12.296875 3.09375 C-12.75578125 2.6915625 -13.2146875 2.289375 -13.6875 1.875 C-13.6875 1.215 -13.6875 0.555 -13.6875 -0.125 C-9.27834252 -2.32957874 -4.50873453 -1.37554613 0 0 Z " fill="#424D9F" transform="translate(360.6875,249.125)"/>
<path d="M0 0 C1 1 1 1 1.09765625 3.28515625 C1.08605469 4.20167969 1.07445312 5.11820313 1.0625 6.0625 C1.05347656 6.98160156 1.04445313 7.90070313 1.03515625 8.84765625 C1.02355469 9.55792969 1.01195312 10.26820313 1 11 C-0.258125 11.020625 -1.51625 11.04125 -2.8125 11.0625 C-3.52019531 11.07410156 -4.22789062 11.08570313 -4.95703125 11.09765625 C-7 11 -7 11 -10 10 C-10 8.68 -10 7.36 -10 6 C-11.3921875 6.2475 -11.3921875 6.2475 -12.8125 6.5 C-16 7 -16 7 -19 7 C-18.01526648 4.14427279 -17.0416157 3.02987794 -14.5625 1.25 C-9.70626189 -0.4539432 -5.10513837 -0.45224394 0 0 Z " fill="#575DA6" transform="translate(268,224)"/>
<path d="M0 0 C0.99 0.33 1.98 0.66 3 1 C2.01 1.495 2.01 1.495 1 2 C1 3.32 1 4.64 1 6 C2.65 6.66 4.3 7.32 6 8 C4 10 4 10 2 10.875 C-0.42021404 12.2363704 -0.98618622 13.46546555 -2 16 C-2.5775 15.649375 -3.155 15.29875 -3.75 14.9375 C-6.35801776 13.85082593 -7.39417629 14.06934867 -10 15 C-10 13.68 -10 12.36 -10 11 C-11.65 11 -13.3 11 -15 11 C-11.72091932 8.26743277 -8.31998932 5.70576705 -4.875 3.1875 C-4.02679688 2.56230469 -3.17859375 1.93710938 -2.3046875 1.29296875 C-1.54414063 0.86628906 -0.78359375 0.43960938 0 0 Z " fill="#5C5F9F" transform="translate(384,248)"/>
<path d="M0 0 C0.515625 0.804375 1.03125 1.60875 1.5625 2.4375 C3.84684608 5.28504925 3.84684608 5.28504925 7.5 5.9375 C10.88448684 5.99793727 12.29056816 5.90663722 15 4 C15.66 3.34 16.32 2.68 17 2 C17 3.32 17 4.64 17 6 C14.69 7.32 12.38 8.64 10 10 C11.65 11.65 13.3 13.3 15 15 C9.09350026 18.21005421 4.56128797 18.47407314 -2 17 C-5.125 15.5625 -5.125 15.5625 -7 14 C-7 13.34 -7 12.68 -7 12 C-7.66 12 -8.32 12 -9 12 C-9 11.34 -9 10.68 -9 10 C-6.4988252 10.44663836 -5.17243054 10.84604416 -3.25 12.5625 C0.16348916 14.7433403 2.99872124 14.20006394 7 14 C7 12.35 7 10.7 7 9 C6.030625 8.87625 5.06125 8.7525 4.0625 8.625 C3.051875 8.41875 2.04125 8.2125 1 8 C-0.35439668 5.29120665 -0.06501451 2.99066732 0 0 Z " fill="#585C99" transform="translate(190,270)"/>
<path d="M0 0 C0.433125 0.495 0.86625 0.99 1.3125 1.5 C3.68067968 3.60504861 5.91481553 3.65720173 9 4 C6.28817788 6.60334924 5.10866187 6.99456691 1.25 7.1875 C0.1775 7.125625 -0.895 7.06375 -2 7 C-1.67 7.66 -1.34 8.32 -1 9 C1.02463255 9.65213292 1.02463255 9.65213292 3 10 C3 10.33 3 10.66 3 11 C5.64 11.33 8.28 11.66 11 12 C11 12.33 11 12.66 11 13 C3.24171081 13.37879531 -2.51385536 13.32842989 -8.9375 8.5625 C-10 7 -10 7 -10 3 C-3.375 -1.125 -3.375 -1.125 0 0 Z " fill="#585B9E" transform="translate(310,275)"/>
<path d="M0 0 C2.11837435 1.71034974 2.93215826 2.56960615 3.36328125 5.3046875 C3.19372657 13.88676268 3.19372657 13.88676268 1 18 C-1.375 17.8125 -1.375 17.8125 -4 17 C-6.3610802 13.17729872 -6.62756921 9.39298444 -6 5 C-4.17248839 2.88029904 -2.33737675 1.60694651 0 0 Z " fill="#394292" transform="translate(378,261)"/>
<path d="M0 0 C0.33 0.66 0.66 1.32 1 2 C2.99760305 2.34740923 4.99787771 2.67966043 7 3 C10.08156289 5.05437526 10.77316121 5.66596208 12 9 C12.22705078 11.74902344 12.22705078 11.74902344 12.1953125 14.859375 C12.18564453 16.53193359 12.18564453 16.53193359 12.17578125 18.23828125 C12.15902344 19.39714844 12.14226562 20.55601562 12.125 21.75 C12.11597656 22.92433594 12.10695313 24.09867187 12.09765625 25.30859375 C12.07410063 28.20593536 12.04120652 31.10286441 12 34 C11.67 34 11.34 34 11 34 C10.67 27.07 10.34 20.14 10 13 C9.67 13 9.34 13 9 13 C8.67 11.35 8.34 9.7 8 8 C7.01 8 6.02 8 5 8 C4.67 8.99 4.34 9.98 4 11 C3.01 11 2.02 11 1 11 C1 18.92 1 26.84 1 35 C0.67 35 0.34 35 0 35 C-0.33 26.09 -0.66 17.18 -1 8 C0.32 7.67 1.64 7.34 3 7 C2.54625 6.54625 2.0925 6.0925 1.625 5.625 C0.41666667 4.41666667 -0.79166667 3.20833333 -2 2 C-1.34 2 -0.68 2 0 2 C0 1.34 0 0.68 0 0 Z " fill="#7D80C2" transform="translate(438,251)"/>
<path d="M0 0 C0.33 1.32 0.66 2.64 1 4 C-1.31 4 -3.62 4 -6 4 C-5.99476318 4.87325928 -5.98952637 5.74651855 -5.98413086 6.64624023 C-5.96712249 9.87589273 -5.95456631 13.10552245 -5.94506836 16.33520508 C-5.9400292 17.73495228 -5.93319784 19.1346942 -5.92456055 20.53442383 C-5.9124768 22.54245777 -5.90730193 24.55052957 -5.90234375 26.55859375 C-5.89710693 27.76829834 -5.89187012 28.97800293 -5.88647461 30.22436523 C-6 33 -6 33 -7 34 C-8.85287502 34.07226502 -10.70833878 34.0838122 -12.5625 34.0625 C-13.57441406 34.05347656 -14.58632812 34.04445313 -15.62890625 34.03515625 C-16.80259766 34.01775391 -16.80259766 34.01775391 -18 34 C-18.92867074 31.21398777 -19.16342217 29.38933911 -19.1875 26.5 C-19.20167969 25.7265625 -19.21585938 24.953125 -19.23046875 24.15625 C-19 22 -19 22 -17 19 C-17 23.29 -17 27.58 -17 32 C-14.03 32 -11.06 32 -8 32 C-8.00523682 31.15703369 -8.01047363 30.31406738 -8.01586914 29.44555664 C-8.03287826 26.32772064 -8.04543406 23.20990823 -8.05493164 20.09204102 C-8.05997057 18.74079614 -8.06680177 17.38955674 -8.07543945 16.03833008 C-8.08752419 14.09979566 -8.09269828 12.161222 -8.09765625 10.22265625 C-8.10551147 8.47094116 -8.10551147 8.47094116 -8.11352539 6.68383789 C-8 4 -8 4 -7 3 C-4.66702567 2.95907063 -2.33294775 2.95758277 0 3 C0 2.01 0 1.02 0 0 Z " fill="#606197" transform="translate(266,253)"/>
<path d="M0 0 C0.99 0.33 1.98 0.66 3 1 C2.34 1 1.68 1 1 1 C0.67 2.65 0.34 4.3 0 6 C-0.99 6 -1.98 6 -3 6 C-2.525625 6.5775 -2.05125 7.155 -1.5625 7.75 C1.95333238 12.81279862 1.47884133 19.06068737 1 25 C-0.10875802 29.24386689 -1.86227887 31.86227887 -5 35 C-5.33 32.03 -5.66 29.06 -6 26 C-4.68 25.34 -3.36 24.68 -2 24 C-1.26044477 17.35174171 -1.26044477 17.35174171 -4 11.6875 C-4.66 11.130625 -5.32 10.57375 -6 10 C-6.1875 7.375 -6.1875 7.375 -6 5 C-6.33 4.34 -6.66 3.68 -7 3 C-4.525 3.495 -4.525 3.495 -2 4 C-2 3.34 -2 2.68 -2 2 C-1.34 2 -0.68 2 0 2 C0 1.34 0 0.68 0 0 Z " fill="#5F649F" transform="translate(409,248)"/>
<path d="M0 0 C0.99 0.33 1.98 0.66 3 1 C2.67 2.65 2.34 4.3 2 6 C0.68 6.33 -0.64 6.66 -2 7 C-1.7215625 7.928125 -1.7215625 7.928125 -1.4375 8.875 C-1 11 -1 11 -2 13 C1.465 12.505 1.465 12.505 5 12 C5.33 12.66 5.66 13.32 6 14 C8.01669827 15.13350534 8.01669827 15.13350534 10 16 C3.32271667 15.41339754 -3.34063095 14.76418989 -10 14 C-9.46823005 9.86186295 -7.22067834 7.72917682 -4.4375 4.75 C-3.61121094 3.85796875 -2.78492188 2.9659375 -1.93359375 2.046875 C-1.29550781 1.37140625 -0.65742187 0.6959375 0 0 Z " fill="#373C86" transform="translate(57,223)"/>
<path d="M0 0 C2.76276177 0.52268466 5.3260876 1.10869587 8 2 C8.75 3.9375 8.75 3.9375 9 6 C8.67 6.66 8.34 7.32 8 8 C7.34 8 6.68 8 6 8 C6 8.66 6 9.32 6 10 C-0.54216759 13.94998798 -5.42228293 14.50146657 -13 14 C-13 13.67 -13 13.34 -13 13 C-11.865625 12.855625 -10.73125 12.71125 -9.5625 12.5625 C-6.19222799 12.38828522 -6.19222799 12.38828522 -5 11 C-3.33382885 10.95936168 -1.66611905 10.957279 0 11 C0 10.01 0 9.02 0 8 C-0.66 7.67 -1.32 7.34 -2 7 C-2 6.34 -2 5.68 -2 5 C-1.360625 4.71125 -0.72125 4.4225 -0.0625 4.125 C2.15206079 3.17176549 2.15206079 3.17176549 3 1 C2.34 1 1.68 1 1 1 C1 1.66 1 2.32 1 3 C-0.32 3.33 -1.64 3.66 -3 4 C-2.01 2.68 -1.02 1.36 0 0 Z " fill="#52599E" transform="translate(360,274)"/>
<path d="M0 0 C0.0270043 1.45823212 0.04639787 2.91660675 0.0625 4.375 C0.07410156 5.18710938 0.08570313 5.99921875 0.09765625 6.8359375 C0 9 0 9 -1 11 C-1.99 11 -2.98 11 -4 11 C-4.66 10.34 -5.32 9.68 -6 9 C-7.98 9.99 -7.98 9.99 -10 11 C-10.2253459 7.69492676 -10.34500438 5.60786486 -8.6875 2.6875 C-5.91458717 -0.08541283 -3.88588943 0 0 0 Z " fill="#343E92" transform="translate(311,249)"/>
<path d="M0 0 C2.31 0 4.62 0 7 0 C6.67 1.65 6.34 3.3 6 5 C8.475 5.99 8.475 5.99 11 7 C11 7.66 11 8.32 11 9 C6.38926889 10.29676812 2.66159911 9.71109139 -2 9 C-1.34 7.68 -0.68 6.36 0 5 C-0.66 5 -1.32 5 -2 5 C-2 4.01 -2 3.02 -2 2 C-1.34 2 -0.68 2 0 2 C0 1.34 0 0.68 0 0 Z " fill="#394295" transform="translate(430,249)"/>
<path d="M0 0 C1.32 0.33 2.64 0.66 4 1 C5.99963028 1.03845443 8.00051633 1.04544281 10 1 C10.33 2.32 10.66 3.64 11 5 C5.06080693 8.67864914 -0.10796502 10.79662881 -7 12 C-6.34 11.67 -5.68 11.34 -5 11 C-5 10.34 -5 9.68 -5 9 C-3.68 9 -2.36 9 -1 9 C-0.67 6.03 -0.34 3.06 0 0 Z " fill="#414998" transform="translate(362,259)"/>
<path d="M0 0 C0.33 1.32 0.66 2.64 1 4 C2.32 4 3.64 4 5 4 C4.67 4.99 4.34 5.98 4 7 C3.01 7 2.02 7 1 7 C1 8.32 1 9.64 1 11 C0.51917969 11.62390625 0.03835937 12.2478125 -0.45703125 12.890625 C-2.41953759 15.57354506 -2.49167033 17.4600615 -2.6875 20.75 C-2.75324219 21.73484375 -2.81898438 22.7196875 -2.88671875 23.734375 C-2.92410156 24.48203125 -2.96148437 25.2296875 -3 26 C-5.80888456 21.17995409 -5.62270416 16.43584103 -5 11 C-3.96212968 7.81594534 -2.60533044 4.93343514 -1 2 C-0.67 1.34 -0.34 0.68 0 0 Z " fill="#585E9B" transform="translate(182,250)"/>
<path d="M0 0 C2.31 0 4.62 0 7 0 C7 0.33 7 0.66 7 1 C5.02 1 3.04 1 1 1 C1 1.99 1 2.98 1 4 C3.31 4.66 5.62 5.32 8 6 C7.01 6.33 6.02 6.66 5 7 C4.67 7.66 4.34 8.32 4 9 C3.01 8.67 2.02 8.34 1 8 C0.01 8 -0.98 8 -2 8 C-2 8.66 -2 9.32 -2 10 C-1.34 10.33 -0.68 10.66 0 11 C-0.33 11.66 -0.66 12.32 -1 13 C-6.74504249 7.69688385 -6.74504249 7.69688385 -7 4 C-6 2 -6 2 -4 1.3125 C-3.01 1.1578125 -3.01 1.1578125 -2 1 C-1.67 1.33 -1.34 1.66 -1 2 C-0.67 1.34 -0.34 0.68 0 0 Z " fill="#595FA6" transform="translate(343,272)"/>
<path d="M0 0 C4.54211753 4.48672586 4.81879651 8.56113059 5.25 14.625 C5.32589355 15.51348633 5.40178711 16.40197266 5.47998047 17.31738281 C5.98136494 23.5454647 6.25793484 29.75224502 6 36 C5.67 36 5.34 36 5 36 C4.28282605 31.67750105 3.57091144 27.35417799 2.86376953 23.0300293 C2.6226864 21.56039298 2.3801902 20.09098771 2.13623047 18.62182617 C1.78497808 16.5049929 1.43888544 14.38736937 1.09375 12.26953125 C0.88427734 10.99698486 0.67480469 9.72443848 0.45898438 8.41333008 C0.07327991 5.54496089 -0.09642822 2.88561434 0 0 Z " fill="#6969A0" transform="translate(114,267)"/>
<path d="M0 0 C0 3.15084005 -0.45473667 4.33871316 -2 7 C-2.66 7.66 -3.32 8.32 -4 9 C-3.71269945 11.33944736 -3.38063221 13.6739143 -3 16 C-3.33 16.33 -3.66 16.66 -4 17 C-4.23075082 18.34747084 -4.41153063 19.70377565 -4.5625 21.0625 C-4.706875 22.361875 -4.85125 23.66125 -5 25 C-5.33 25 -5.66 25 -6 25 C-6.33 20.71 -6.66 16.42 -7 12 C-7.66 12 -8.32 12 -9 12 C-9 11.34 -9 10.68 -9 10 C-9.99 10.33 -10.98 10.66 -12 11 C-12.66 10.67 -13.32 10.34 -14 10 C-14 9.34 -14 8.68 -14 8 C-12.68 8 -11.36 8 -10 8 C-9.34 7.01 -8.68 6.02 -8 5 C-7.67 5.66 -7.34 6.32 -7 7 C-4.69 4.69 -2.38 2.38 0 0 Z " fill="#6D71A6" transform="translate(119,242)"/>
<path d="M0 0 C2.35964273 0.40683495 3.85934088 0.89814339 5.8125 2.3125 C7 4 7 4 6.9375 6.0625 C6 8 6 8 4.25 9.25 C1.71262971 10.0957901 -0.34234296 10.14764761 -3 10 C-3 9.34 -3 8.68 -3 8 C-3.66 7.67 -4.32 7.34 -5 7 C-4.0409375 6.1028125 -4.0409375 6.1028125 -3.0625 5.1875 C-0.79689611 3.09189663 -0.79689611 3.09189663 0 0 Z " fill="#585C9C" transform="translate(325,248)"/>
<path d="M0 0 C1.09658936 3.28976808 0.79953138 4.71303767 0 8 C-3.3 8 -6.6 8 -10 8 C-10 7.34 -10 6.68 -10 6 C-10.99 5.67 -11.98 5.34 -13 5 C-13 4.34 -13 3.68 -13 3 C-11.35 2.67 -9.7 2.34 -8 2 C-8 1.67 -8 1.34 -8 1 C-2.25 0 -2.25 0 0 0 Z " fill="#333C8F" transform="translate(321,279)"/>
<path d="M0 0 C0.94875 0.350625 1.8975 0.70125 2.875 1.0625 C2.875 1.7225 2.875 2.3825 2.875 3.0625 C3.535 3.3925 4.195 3.7225 4.875 4.0625 C4.545 5.0525 4.215 6.0425 3.875 7.0625 C3.215 7.0625 2.555 7.0625 1.875 7.0625 C1.875 7.7225 1.875 8.3825 1.875 9.0625 C0.225 9.3925 -1.425 9.7225 -3.125 10.0625 C-3.46123796 8.7715864 -3.79389249 7.47973903 -4.125 6.1875 C-4.310625 5.46820313 -4.49625 4.74890625 -4.6875 4.0078125 C-5.125 2.0625 -5.125 2.0625 -5.125 0.0625 C-3.125 -0.9375 -3.125 -0.9375 0 0 Z " fill="#354097" transform="translate(325.125,267.9375)"/>
<path d="M0 0 C0 3.3 0 6.6 0 10 C-0.66 10 -1.32 10 -2 10 C-2 9.34 -2 8.68 -2 8 C-4.64 8 -7.28 8 -10 8 C-10 7.01 -10 6.02 -10 5 C-9.34 4.67 -8.68 4.34 -8 4 C-7.67 3.01 -7.34 2.02 -7 1 C-5 0 -5 0 0 0 Z " fill="#47498C" transform="translate(269,225)"/>
<path d="M0 0 C0 2.64 0 5.28 0 8 C-1.65 8.33 -3.3 8.66 -5 9 C-5 18.24 -5 27.48 -5 37 C-5.33 37 -5.66 37 -6 37 C-6.16756928 32.5625336 -6.33390157 28.12502168 -6.5 23.6875 C-6.54769531 22.42486328 -6.59539062 21.16222656 -6.64453125 19.86132812 C-6.68964844 18.65283203 -6.73476563 17.44433594 -6.78125 16.19921875 C-6.82314453 15.08377686 -6.86503906 13.96833496 -6.90820312 12.8190918 C-6.97133905 10.88018086 -7 8.9399386 -7 7 C-5.68 7 -4.36 7 -3 7 C-3 5.35 -3 3.7 -3 2 C-3.99 1.67 -4.98 1.34 -6 1 C-3.92446352 0.4465236 -2.15634036 0 0 0 Z " fill="#A1A3C6" transform="translate(295,248)"/>
<path d="M0 0 C1.67542976 0.28604898 3.34385343 0.61781233 5 1 C5.35915493 7.34507042 5.35915493 7.34507042 3.9375 9.9375 C0.98831309 11.55479605 -1.70867559 11.18630138 -5 11 C-5 10.01 -5 9.02 -5 8 C-3.68 7.67 -2.36 7.34 -1 7 C-1.020625 6.030625 -1.04125 5.06125 -1.0625 4.0625 C-1 1 -1 1 0 0 Z " fill="#373D90" transform="translate(234,228)"/>
<path d="M0 0 C11.94582393 2.21218962 11.94582393 2.21218962 15.75 7.375 C16.97855503 9.95496557 17.59731288 12.18119013 18 15 C17.01 14.67 16.02 14.34 15 14 C15 13.01 15 12.02 15 11 C14.01 10.67 13.02 10.34 12 10 C12 9.34 12 8.68 12 8 C11.21753906 7.67386719 10.43507813 7.34773438 9.62890625 7.01171875 C8.61699219 6.57472656 7.60507812 6.13773437 6.5625 5.6875 C5.55316406 5.25824219 4.54382813 4.82898438 3.50390625 4.38671875 C1 3 1 3 0 0 Z " fill="#5A5D95" transform="translate(315,261)"/>
<path d="M0 0 C2.64 0.33 5.28 0.66 8 1 C8 4 8 4 7 6 C8.65 5.67 10.3 5.34 12 5 C12.33 5.99 12.66 6.98 13 8 C9.04 8 5.08 8 1 8 C1.33 6.02 1.66 4.04 2 2 C1.34 2 0.68 2 0 2 C0 1.34 0 0.68 0 0 Z " fill="#343E8C" transform="translate(192,295)"/>
<path d="M0 0 C0.99 0.33 1.98 0.66 3 1 C3.6875 3.0625 3.6875 3.0625 4 5 C3.01 5.495 3.01 5.495 2 6 C2 6.66 2 7.32 2 8 C1.2575 8.103125 0.515 8.20625 -0.25 8.3125 C-3.17014018 9.04253504 -4.73187554 10.06789398 -7 12 C-7.66 11.67 -8.32 11.34 -9 11 C-9 10.34 -9 9.68 -9 9 C-8.34 9 -7.68 9 -7 9 C-6.6596875 8.1646875 -6.6596875 8.1646875 -6.3125 7.3125 C-4.64103234 4.36753316 -2.44723648 2.31843456 0 0 Z " fill="#61639F" transform="translate(87,190)"/>
<path d="M0 0 C3 3.625 3 3.625 3 7 C3.61875 7.165 4.2375 7.33 4.875 7.5 C7.8101253 9.57185315 7.8803321 11.60181302 8.5078125 15.02734375 C8.95751108 17.30110641 8.95751108 17.30110641 11 20 C8.7421875 19.95703125 8.7421875 19.95703125 6 19 C4.42664026 16.52031326 3.27120913 14.35119034 2.125 11.6875 C1.8053125 11.01009766 1.485625 10.33269531 1.15625 9.63476562 C-0.49621675 5.95982326 -1.2501519 3.83010674 0 0 Z " fill="#575D98" transform="translate(94,194)"/>
<path d="M0 0 C0.33 0 0.66 0 1 0 C1.33 1.98 1.66 3.96 2 6 C2.66 6 3.32 6 4 6 C4 5.01 4 4.02 4 3 C4.66 3 5.32 3 6 3 C7.98362069 5.91708924 7.9876191 7.12380904 7.625 10.75 C7.41875 11.8225 7.2125 12.895 7 14 C5 11 5 11 4 8 C1.03 10.475 1.03 10.475 -2 13 C-2 8.1446809 -1.66299521 4.57323684 0 0 Z " fill="#7171A6" transform="translate(114,224)"/>
<path d="M0 0 C0.99 0.99 1.98 1.98 3 3 C3 3.66 3 4.32 3 5 C3.66 4.67 4.32 4.34 5 4 C6.54023996 3.93049459 8.08334988 3.91547643 9.625 3.9375 C10.85089844 3.95103516 10.85089844 3.95103516 12.1015625 3.96484375 C13.04128906 3.98224609 13.04128906 3.98224609 14 4 C13.01 4.495 13.01 4.495 12 5 C12 5.66 12 6.32 12 7 C8.23375329 8.25541557 6.62811066 7.37061958 3 6 C2.67 9.3 2.34 12.6 2 16 C1.34 15.67 0.68 15.34 0 15 C0 10.05 0 5.1 0 0 Z " fill="#333D89" transform="translate(336,261)"/>
<path d="M0 0 C0.66 0 1.32 0 2 0 C1.67 0.99 1.34 1.98 1 3 C-1.0625 3.6875 -1.0625 3.6875 -3 4 C-3 4.66 -3 5.32 -3 6 C-1.68 6.66 -0.36 7.32 1 8 C0.34 8 -0.32 8 -1 8 C-1 8.66 -1 9.32 -1 10 C-5.50353262 11.75747614 -9.17639811 12.19294408 -14 12 C-13.01 11.34 -12.02 10.68 -11 10 C-11.33 9.01 -11.66 8.02 -12 7 C-11.01 7.33 -10.02 7.66 -9 8 C-6.83284443 7.12516085 -6.83284443 7.12516085 -5 6 C-5 5.01 -5 4.02 -5 3 C-3.35 2.67 -1.7 2.34 0 2 C0 1.34 0 0.68 0 0 Z " fill="#333C90" transform="translate(361,275)"/>
<path d="M0 0 C0.33 1.65 0.66 3.3 1 5 C4.96 5 8.92 5 13 5 C13 4.34 13 3.68 13 3 C15.475 3.495 15.475 3.495 18 4 C12.17622268 7.61823789 3.80826007 6.8667846 -2.66015625 5.39453125 C-7.70448895 3.5910221 -7.70448895 3.5910221 -9 1 C-5.94152152 0.45627049 -3.11227195 0 0 0 Z " fill="#797BB1" transform="translate(192,298)"/>
<path d="M0 0 C0.33 0 0.66 0 1 0 C1.19682269 3.43703301 1.38085152 6.87463427 1.5625 10.3125 C1.61857422 11.28896484 1.67464844 12.26542969 1.73242188 13.27148438 C1.78076172 14.20927734 1.82910156 15.14707031 1.87890625 16.11328125 C1.9260376 16.97735596 1.97316895 17.84143066 2.02172852 18.73168945 C2 21 2 21 1 24 C-2.63 24 -6.26 24 -10 24 C-10 23.34 -10 22.68 -10 22 C-7.03 22 -4.06 22 -1 22 C-0.67 14.74 -0.34 7.48 0 0 Z " fill="#6E6FA0" transform="translate(237,263)"/>
<path d="M0 0 C0.66 0 1.32 0 2 0 C3.125 4.75 3.125 4.75 2 7 C3.32 7.66 4.64 8.32 6 9 C5.67 9.99 5.34 10.98 5 12 C2.03 11.505 2.03 11.505 -1 11 C-1.33 11.66 -1.66 12.32 -2 13 C-2.99 12.01 -3.98 11.02 -5 10 C-4.67 9.34 -4.34 8.68 -4 8 C-3.01 8.33 -2.02 8.66 -1 9 C-0.67 6.03 -0.34 3.06 0 0 Z " fill="#4E539F" transform="translate(380,270)"/>
<path d="M0 0 C1.50046875 0.00386719 1.50046875 0.00386719 3.03125 0.0078125 C4.0315625 0.00523437 5.031875 0.00265625 6.0625 0 C8.53125 0.1328125 8.53125 0.1328125 9.53125 1.1328125 C9.60369053 3.15245449 9.61502188 5.17448374 9.59375 7.1953125 C9.58472656 8.30003906 9.57570313 9.40476563 9.56640625 10.54296875 C9.55480469 11.39761719 9.54320312 12.25226563 9.53125 13.1328125 C9.20125 13.1328125 8.87125 13.1328125 8.53125 13.1328125 C8.20125 9.5028125 7.87125 5.8728125 7.53125 2.1328125 C4.23125 2.1328125 0.93125 2.1328125 -2.46875 2.1328125 C-2.46875 5.7628125 -2.46875 9.3928125 -2.46875 13.1328125 C-2.79875 13.1328125 -3.12875 13.1328125 -3.46875 13.1328125 C-3.49561553 11.15371852 -3.51508375 9.17452279 -3.53125 7.1953125 C-3.54285156 6.09316406 -3.55445313 4.99101562 -3.56640625 3.85546875 C-3.43474599 0.18478064 -3.43474599 0.18478064 0 0 Z " fill="#8383A8" transform="translate(280.46875,233.8671875)"/>
<path d="M0 0 C1.32 0.33 2.64 0.66 4 1 C7.15759312 6.77077364 7.15759312 6.77077364 6.6875 10.4375 C6.460625 10.953125 6.23375 11.46875 6 12 C4.5393715 9.35261084 4 8.10551666 4 5 C2.68 5 1.36 5 0 5 C0 5.66 0 6.32 0 7 C-0.99 7 -1.98 7 -3 7 C-3.33 7.66 -3.66 8.32 -4 9 C-4.66 8.67 -5.32 8.34 -6 8 C-4.02 5.36 -2.04 2.72 0 0 Z " fill="#6C73AD" transform="translate(148,207)"/>
<path d="M0 0 C0.33 0 0.66 0 1 0 C1 2.31 1 4.62 1 7 C2.32 7.33 3.64 7.66 5 8 C0.375 11 0.375 11 -3 11 C-3.33 10.34 -3.66 9.68 -4 9 C-4.99 9.33 -5.98 9.66 -7 10 C-7 9.34 -7 8.68 -7 8 C-6.505 7.525625 -6.01 7.05125 -5.5 6.5625 C-3.65373409 5.00030058 -3.65373409 5.00030058 -4 2 C-3.01 2 -2.02 2 -1 2 C-0.67 1.34 -0.34 0.68 0 0 Z " fill="#6C6DA7" transform="translate(399,276)"/>
<path d="M0 0 C2.475 0.99 2.475 0.99 5 2 C5.33 1.34 5.66 0.68 6 0 C6 1.32 6 2.64 6 4 C6.66 4.33 7.32 4.66 8 5 C7.01 5.66 6.02 6.32 5 7 C4.34 7.66 3.68 8.32 3 9 C1.68 9 0.36 9 -1 9 C-1.33 8.34 -1.66 7.68 -2 7 C-1.34 6.67 -0.68 6.34 0 6 C0 4.02 0 2.04 0 0 Z M8 2 C8.99 2.495 8.99 2.495 10 3 C9.01 3.495 9.01 3.495 8 4 C8 3.34 8 2.68 8 2 Z " fill="#5A5EA0" transform="translate(202,248)"/>
<path d="M0 0 C2.46762498 0.44064732 3.85788952 0.88239133 5.8125 2.5 C8.41721069 4.28608733 10.12395226 4.48183896 13.25 4.6875 C14.14203125 4.75324219 15.0340625 4.81898438 15.953125 4.88671875 C16.62859375 4.92410156 17.3040625 4.96148437 18 5 C17.67 5.99 17.34 6.98 17 8 C6.060808 7.38400666 6.060808 7.38400666 2 4 C2 3.34 2 2.68 2 2 C1.34 2 0.68 2 0 2 C0 1.34 0 0.68 0 0 Z " fill="#6B70A1" transform="translate(181,280)"/>
<path d="M0 0 C17.01750378 -0.86140345 17.01750378 -0.86140345 21.5625 2.5 C22.7690625 3.7375 22.7690625 3.7375 24 5 C23.67 5.66 23.34 6.32 23 7 C20.03 6.34 17.06 5.68 14 5 C14 4.01 14 3.02 14 2 C13.11248047 2.01740234 13.11248047 2.01740234 12.20703125 2.03515625 C7.99768215 2.08322386 4.1077667 2.06006883 0 1 C0 0.67 0 0.34 0 0 Z " fill="#5A5EA0" transform="translate(422,248)"/>
<path d="M0 0 C1.32 0 2.64 0 4 0 C4.3125 2.25 4.3125 2.25 4 5 C1.6875 7.3125 1.6875 7.3125 -1 9 C-1.99 9 -2.98 9 -4 9 C-4 7.68 -4 6.36 -4 5 C-3.34 5 -2.68 5 -2 5 C-1.7834375 4.0409375 -1.7834375 4.0409375 -1.5625 3.0625 C-1 1 -1 1 0 0 Z " fill="#464C94" transform="translate(379,251)"/>
<path d="M0 0 C0 0.66 0 1.32 0 2 C-1.32 2.33 -2.64 2.66 -4 3 C-4 3.66 -4 4.32 -4 5 C-2.68 5.66 -1.36 6.32 0 7 C-0.66 7.66 -1.32 8.32 -2 9 C-3.33897583 8.04956626 -4.67105427 7.08940853 -6 6.125 C-6.7425 5.59132812 -7.485 5.05765625 -8.25 4.5078125 C-8.8275 4.01023438 -9.405 3.51265625 -10 3 C-10 2.34 -10 1.68 -10 1 C-6.78548731 -0.60725635 -3.56387464 -0.05748185 0 0 Z " fill="#6F70A1" transform="translate(357,248)"/>
<path d="M0 0 C0.33 0 0.66 0 1 0 C1.02690104 2.79173055 1.04679053 5.58320348 1.0625 8.375 C1.07087891 9.1690625 1.07925781 9.963125 1.08789062 10.78125 C1.11328125 16.7734375 1.11328125 16.7734375 0 19 C-2.0625 19.625 -2.0625 19.625 -4 20 C-4.33 21.65 -4.66 23.3 -5 25 C-3.35 25 -1.7 25 0 25 C0 25.33 0 25.66 0 26 C-1.98 26 -3.96 26 -6 26 C-6 22.7 -6 19.4 -6 16 C-4.02 16 -2.04 16 0 16 C0 10.72 0 5.44 0 0 Z " fill="#7574A9" transform="translate(248,231)"/>
<path d="M0 0 C0.33 0.66 0.66 1.32 1 2 C-0.7466747 7.24002409 -2.36555834 9.79154039 -7 13 C-7.66 13.66 -8.32 14.32 -9 15 C-9.66 14.67 -10.32 14.34 -11 14 C-11 12 -11 12 -8.875 9.8125 C-8.20017578 9.16667969 -8.20017578 9.16667969 -7.51171875 8.5078125 C-4.82896747 5.83199339 -2.4332419 2.90149463 0 0 Z " fill="#696EA3" transform="translate(133,225)"/>
<path d="M0 0 C0.75796875 0.0721875 1.5159375 0.144375 2.296875 0.21875 C1.678125 0.280625 1.059375 0.3425 0.421875 0.40625 C-1.94099997 1.02568523 -1.94099997 1.02568523 -2.765625 3.53125 C-3.2296875 4.8615625 -3.2296875 4.8615625 -3.703125 6.21875 C-4.20328125 6.78464844 -4.7034375 7.35054688 -5.21875 7.93359375 C-7.27631148 11.10115551 -7.21728603 13.72462815 -7.390625 17.46875 C-7.48923828 19.36367188 -7.48923828 19.36367188 -7.58984375 21.296875 C-7.62722656 22.26109375 -7.66460937 23.2253125 -7.703125 24.21875 C-8.033125 24.21875 -8.363125 24.21875 -8.703125 24.21875 C-9.94522328 16.49013849 -10.53819967 10.41366622 -5.953125 3.71875 C-3.97772315 1.01556852 -3.39909604 0.27507136 0 0 Z " fill="#7979A8" transform="translate(343.703125,251.78125)"/>
<path d="M0 0 C0.33 0 0.66 0 1 0 C2.2982126 5.76081841 3.25706972 11.08739655 3 17 C1.68 17 0.36 17 -1 17 C-1.12036664 11.22240116 -0.8320582 5.72040011 0 0 Z " fill="#474F93" transform="translate(401,266)"/>
<path d="M0 0 C2.60803727 1.30401863 2.95890464 2.2967045 4 5 C4.22705078 7.74902344 4.22705078 7.74902344 4.1953125 10.859375 C4.18886719 11.97441406 4.18242187 13.08945312 4.17578125 14.23828125 C4.15902344 15.39714844 4.14226562 16.55601562 4.125 17.75 C4.11597656 18.92433594 4.10695313 20.09867187 4.09765625 21.30859375 C4.07410063 24.20593536 4.04120652 27.10286441 4 30 C3.67 30 3.34 30 3 30 C2.67 23.07 2.34 16.14 2 9 C1.67 9 1.34 9 1 9 C0.67 7.35 0.34 5.7 0 4 C-0.66 4 -1.32 4 -2 4 C-1 1 -1 1 0 0 Z " fill="#616197" transform="translate(446,255)"/>
<path d="M0 0 C0.66 0 1.32 0 2 0 C2.33 3.96 2.66 7.92 3 12 C-0.4352048 14.29013653 -1.985331 14.17842973 -6 14 C-5.175 13.505 -4.35 13.01 -3.5 12.5 C-0.85197012 10.34716647 -0.85197012 10.34716647 -0.703125 8.0234375 C-0.74697456 6.01366612 -0.87057555 4.00607904 -1 2 C-0.67 1.34 -0.34 0.68 0 0 Z " fill="#6669A0" transform="translate(207,281)"/>
<path d="M0 0 C3 1 3 1 4.3125 2.5 C6.68067968 4.60504861 8.91481553 4.65720173 12 5 C9.44931155 7.35448165 8.28982642 7.98327924 4.75 8.1875 C3.8425 8.125625 2.935 8.06375 2 8 C1.67 7.34 1.34 6.68 1 6 C1.33 5.01 1.66 4.02 2 3 C1.01 3.33 0.02 3.66 -1 4 C-1.66 3.34 -2.32 2.68 -3 2 C-2.01 1.34 -1.02 0.68 0 0 Z " fill="#475097" transform="translate(307,274)"/>
<path d="M0 0 C0 0.66 0 1.32 0 2 C-0.66 2 -1.32 2 -2 2 C-2 2.99 -2 3.98 -2 5 C-5.05847848 5.54372951 -7.88772805 6 -11 6 C-8.60159776 0.46522561 -5.82500047 -0.25888891 0 0 Z " fill="#515596" transform="translate(260,225)"/>
<path d="M0 0 C2.49126366 1.12508681 3.47475191 2.60774047 4.9375 4.875 C4.6075 5.535 4.2775 6.195 3.9375 6.875 C2.9475 6.215 1.9575 5.555 0.9375 4.875 C0.2775 5.04 -0.3825 5.205 -1.0625 5.375 C-1.7225 5.54 -2.3825 5.705 -3.0625 5.875 C-4.0525 5.215 -5.0425 4.555 -6.0625 3.875 C-6.0625 3.215 -6.0625 2.555 -6.0625 1.875 C-3.89659519 0.55998637 -2.56128708 -0.15522952 0 0 Z " fill="#3C4496" transform="translate(359.0625,249.125)"/>
<path d="M0 0 C6.67728333 0.58660246 13.34063095 1.23581011 20 2 C20 2.33 20 2.66 20 3 C13.07 3 6.14 3 -1 3 C-0.67 2.01 -0.34 1.02 0 0 Z " fill="#767DAD" transform="translate(47,238)"/>
<path d="M0 0 C-1.98 2.31 -3.96 4.62 -6 7 C-6.99 6.67 -7.98 6.34 -9 6 C-9.6875 3.9375 -9.6875 3.9375 -10 2 C-6.3558226 -0.4294516 -4.28758728 -0.16179575 0 0 Z " fill="#353B8C" transform="translate(394,248)"/>
<path d="M0 0 C2.66278046 0.93197316 3.66787187 1.79303621 5.5 3.875 C6.49 4.535 7.48 5.195 8.5 5.875 C8.17 7.195 7.84 8.515 7.5 9.875 C6.654375 9.09125 5.80875 8.3075 4.9375 7.5 C1.62074083 4.70568977 -1.29604094 3.79987099 -5.5 2.875 C-3.68189192 0.48275253 -3.08240061 -0.15412003 0 0 Z " fill="#454B8E" transform="translate(393.5,253.125)"/>
<path d="M0 0 C1.953125 1.17578125 1.953125 1.17578125 4 3 C4.609375 5.48046875 4.609375 5.48046875 4.75 8.1875 C4.80671875 9.08855469 4.8634375 9.98960937 4.921875 10.91796875 C4.94765625 11.60503906 4.9734375 12.29210937 5 13 C3.68 13.33 2.36 13.66 1 14 C0.67 13.34 0.34 12.68 0 12 C0.66 11.67 1.32 11.34 2 11 C1.67 9.741875 1.34 8.48375 1 7.1875 C0.32396773 4.61012698 0 2.69787075 0 0 Z " fill="#746E92" transform="translate(90,234)"/>
<path d="M0 0 C0.66 0 1.32 0 2 0 C2 0.66 2 1.32 2 2 C2.66 2 3.32 2 4 2 C3.42647107 5.87132028 1.51295648 8.08172796 -1 11 C-1.22174933 9.54364629 -1.42698698 8.08477044 -1.625 6.625 C-1.74101562 5.81289063 -1.85703125 5.00078125 -1.9765625 4.1640625 C-1.98429687 3.44992187 -1.99203125 2.73578125 -2 2 C-1.34 1.34 -0.68 0.68 0 0 Z " fill="#51589D" transform="translate(405,272)"/>
<path d="M0 0 C2.31 0.33 4.62 0.66 7 1 C6.67 4.63 6.34 8.26 6 12 C5.67 12 5.34 12 5 12 C4.731875 10.88625 4.46375 9.7725 4.1875 8.625 C3.34190981 4.78159049 3.34190981 4.78159049 0 3 C0 2.01 0 1.02 0 0 Z " fill="#333C8E" transform="translate(183,256)"/>
<path d="M0 0 C-0.33 1.65 -0.66 3.3 -1 5 C-3.97 4.505 -3.97 4.505 -7 4 C-7 3.67 -7 3.34 -7 3 C-9.97 2.505 -9.97 2.505 -13 2 C-13 1.67 -13 1.34 -13 1 C-8.62426048 0.40667939 -4.42471556 -0.13827236 0 0 Z " fill="#676CA7" transform="translate(356,263)"/>
<path d="M0 0 C1.32 0.33 2.64 0.66 4 1 C4 1.99 4 2.98 4 4 C1.625 6.0625 1.625 6.0625 -1 8 C-1.66 8.66 -2.32 9.32 -3 10 C-3 8.35 -3 6.7 -3 5 C-2.34 5 -1.68 5 -1 5 C-0.67 3.35 -0.34 1.7 0 0 Z " fill="#65699D" transform="translate(346,253)"/>
<path d="M0 0 C3.465 1.98 3.465 1.98 7 4 C7 4.99 7 5.98 7 7 C5.35 7.33 3.7 7.66 2 8 C2 7.01 2 6.02 2 5 C1.34 4.67 0.68 4.34 0 4 C0 2.68 0 1.36 0 0 Z " fill="#51579A" transform="translate(197,279)"/>
<path d="M0 0 C1.625 1 1.625 1 3 3 C2.65009645 5.8158905 1.84980278 8.2716858 1 11 C0.01 10.34 -0.98 9.68 -2 9 C-1.34 8.67 -0.68 8.34 0 8 C-0.33 7.01 -0.66 6.02 -1 5 C-1.66 5 -2.32 5 -3 5 C-2.67 4.01 -2.34 3.02 -2 2 C-1.34 2 -0.68 2 0 2 C0 1.34 0 0.68 0 0 Z " fill="#555C9F" transform="translate(359,253)"/>
<path d="M0 0 C3.06630664 0.8974556 4.73038808 1.73038808 7 4 C6.34 4 5.68 4 5 4 C5 4.66 5 5.32 5 6 C1.31245243 5.50168276 -0.60490662 4.89932357 -3 2 C-2.01 1.34 -1.02 0.68 0 0 Z " fill="#4F4D8F" transform="translate(94,232)"/>
<path d="M0 0 C0.66 0.99 1.32 1.98 2 3 C1.67 3.33 1.34 3.66 1 4 C0.95919217 5.99958364 0.95745644 8.00045254 1 10 C-0.98 10.99 -0.98 10.99 -3 12 C-3.36923077 4.61538462 -3.36923077 4.61538462 -1.5 1.5 C-1.005 1.005 -0.51 0.51 0 0 Z " fill="#7D749C" transform="translate(94,222)"/>
<path d="M0 0 C1.9375 0.3125 1.9375 0.3125 4 1 C4.33 1.99 4.66 2.98 5 4 C3.68 4.33 2.36 4.66 1 5 C1 5.66 1 6.32 1 7 C-0.32 7 -1.64 7 -3 7 C-3 6.01 -3 5.02 -3 4 C-2.34 3.67 -1.68 3.34 -1 3 C-0.67 2.01 -0.34 1.02 0 0 Z " fill="#36409C" transform="translate(262,226)"/>
<path d="M0 0 C1.95582488 2.93373731 3.56224304 5.78216298 5 9 C4 11 4 11 2 12 C1.34 11.01 0.68 10.02 0 9 C-0.66 8.34 -1.32 7.68 -2 7 C-1.67 6.67 -1.34 6.34 -1 6 C-1 5.175 -1 4.35 -1 3.5 C-1 1 -1 1 0 0 Z " fill="#5B61A2" transform="translate(91,195)"/>
<path d="M0 0 C1.32 0 2.64 0 4 0 C4 0.66 4 1.32 4 2 C5.65 2.33 7.3 2.66 9 3 C6.44931155 5.35448165 5.28982642 5.98327924 1.75 6.1875 C0.8425 6.125625 -0.065 6.06375 -1 6 C-0.34 5.67 0.32 5.34 1 5 C0.67 3.35 0.34 1.7 0 0 Z " fill="#41488E" transform="translate(348,266)"/>
<path d="M0 0 C1.9587043 0.14076315 3.91696093 0.2877676 5.875 0.4375 C7.51082031 0.55931641 7.51082031 0.55931641 9.1796875 0.68359375 C12 1 12 1 14 2 C14 2.66 14 3.32 14 4 C10.64946006 5.11684665 8.37066702 5.06874808 5 4 C2.1875 1.9375 2.1875 1.9375 0 0 Z " fill="#373E8C" transform="translate(109,195)"/>
<path d="M0 0 C0 0.66 0 1.32 0 2 C2.31 2.33 4.62 2.66 7 3 C3.64672361 5.23551759 3.09256343 5.17283528 -0.6875 4.625 C-1.49574219 4.51414062 -2.30398437 4.40328125 -3.13671875 4.2890625 C-4.05904297 4.14597656 -4.05904297 4.14597656 -5 4 C-5 3.01 -5 2.02 -5 1 C-3 0 -3 0 0 0 Z " fill="#54599A" transform="translate(94,297)"/>
<path d="M0 0 C0.99 0.495 0.99 0.495 2 1 C2 1.66 2 2.32 2 3 C2.66 3 3.32 3 4 3 C3.4140625 9.15234375 3.4140625 9.15234375 3 11 C2.01 11.495 2.01 11.495 1 12 C-0.3271261 8.0186217 -0.06915913 4.14954773 0 0 Z " fill="#36388B" transform="translate(114,259)"/>
<path d="M0 0 C0.99 0.33 1.98 0.66 3 1 C3.6875 3.0625 3.6875 3.0625 4 5 C3.01 5.495 3.01 5.495 2 6 C2 6.66 2 7.32 2 8 C0.0625 7.1875 0.0625 7.1875 -2 6 C-2.33 5.01 -2.66 4.02 -3 3 C-2.01 2.01 -1.02 1.02 0 0 Z " fill="#575D9C" transform="translate(87,190)"/>
<path d="M0 0 C2.46800047 1.15173355 4.04783565 2.04783565 6 4 C4.40084119 4.69906942 2.79544955 5.38389468 1.1875 6.0625 C0.29417969 6.44535156 -0.59914063 6.82820313 -1.51953125 7.22265625 C-4 8 -4 8 -7 7 C-6.34 7 -5.68 7 -5 7 C-5 6.34 -5 5.68 -5 5 C-3.68 5 -2.36 5 -1 5 C-0.67 3.35 -0.34 1.7 0 0 Z " fill="#676AA3" transform="translate(362,263)"/>
<path d="M0 0 C0.33 0 0.66 0 1 0 C1 3.3 1 6.6 1 10 C3.31 10 5.62 10 8 10 C7.01 10.495 7.01 10.495 6 11 C6 11.66 6 12.32 6 13 C4.33388095 13.042721 2.66617115 13.04063832 1 13 C0 12 0 12 -0.09765625 9.27734375 C-0.08605469 8.17519531 -0.07445312 7.07304687 -0.0625 5.9375 C-0.05347656 4.83277344 -0.04445313 3.72804687 -0.03515625 2.58984375 C-0.02355469 1.73519531 -0.01195312 0.88054687 0 0 Z " fill="#888BBB" transform="translate(259,237)"/>
<path d="M0 0 C1.08667969 0.28746094 2.17335938 0.57492188 3.29296875 0.87109375 C4.12441406 1.09925781 4.95585938 1.32742187 5.8125 1.5625 C5.4825 2.2225 5.1525 2.8825 4.8125 3.5625 C3.22782272 3.27822583 1.6447943 2.98475182 0.0625 2.6875 C-1.26007813 2.44386719 -1.26007813 2.44386719 -2.609375 2.1953125 C-5.05697744 1.59453736 -6.99349857 0.78252883 -9.1875 -0.4375 C-5.46983332 -1.67672223 -3.74860463 -1.00768942 0 0 Z " fill="#6364A0" transform="translate(115.1875,214.4375)"/>
<path d="M0 0 C0.33 0.66 0.66 1.32 1 2 C0.34 2 -0.32 2 -1 2 C-1 3.32 -1 4.64 -1 6 C0.32 6.33 1.64 6.66 3 7 C1.02 7.99 1.02 7.99 -1 9 C-1.33 7.68 -1.66 6.36 -2 5 C-3.65 5 -5.3 5 -7 5 C-2.25 1.125 -2.25 1.125 0 0 Z " fill="#7E7CB9" transform="translate(376,254)"/>
<path d="M0 0 C0.33 0.66 0.66 1.32 1 2 C1.99 2.33 2.98 2.66 4 3 C4.87867729 6.73437848 5.08912219 10.16774573 5 14 C3.37723842 11.56585763 2.38255208 9.68680554 1.375 7 C0.98441406 5.9790625 0.98441406 5.9790625 0.5859375 4.9375 C0 3 0 3 0 0 Z " fill="#6466A1" transform="translate(48,250)"/>
<path d="M0 0 C3.3 0.33 6.6 0.66 10 1 C8.68 1.33 7.36 1.66 6 2 C6 2.66 6 3.32 6 4 C4.68 3.67 3.36 3.34 2 3 C2 3.66 2 4.32 2 5 C0.68 4.67 -0.64 4.34 -2 4 C-1.34 3.67 -0.68 3.34 0 3 C0 2.01 0 1.02 0 0 Z " fill="#343B86" transform="translate(410,249)"/>
<path d="M0 0 C1.65 1.32 3.3 2.64 5 4 C3 6 3 6 -0.125 6.125 C-1.548125 6.063125 -1.548125 6.063125 -3 6 C-1.125 1.125 -1.125 1.125 0 0 Z " fill="#444D95" transform="translate(304,250)"/>
<path d="M0 0 C0.66 0 1.32 0 2 0 C2 0.66 2 1.32 2 2 C3.98 2 5.96 2 8 2 C8 2.33 8 2.66 8 3 C5.36 3.33 2.72 3.66 0 4 C0 4.99 0 5.98 0 7 C0.99 7.33 1.98 7.66 3 8 C2.01 8.495 2.01 8.495 1 9 C0.01 8.67 -0.98 8.34 -2 8 C-1.125 1.125 -1.125 1.125 0 0 Z " fill="#696CA0" transform="translate(312,252)"/>
<path d="M0 0 C0.99 0 1.98 0 3 0 C3 0.66 3 1.32 3 2 C3.66 2.33 4.32 2.66 5 3 C4.34 4.65 3.68 6.3 3 8 C2.34 7.01 1.68 6.02 1 5 C0.01 4.67 -0.98 4.34 -2 4 C-1.34 2.68 -0.68 1.36 0 0 Z " fill="#353E91" transform="translate(102,250)"/>
<path d="M0 0 C0.36923077 6.52307692 0.36923077 6.52307692 -1.5 8.9375 C-1.995 9.288125 -2.49 9.63875 -3 10 C-3.99 9.67 -4.98 9.34 -6 9 C-5.34 8.34 -4.68 7.68 -4 7 C-4.020625 6.175 -4.04125 5.35 -4.0625 4.5 C-4.041875 3.675 -4.02125 2.85 -4 2 C-1 0 -1 0 0 0 Z " fill="#535695" transform="translate(239,229)"/>
<path d="M0 0 C2.09749995 2.35968744 2.96905704 3.54616994 3.1875 6.75 C3.125625 7.4925 3.06375 8.235 3 9 C3.99 9.33 4.98 9.66 6 10 C4.68 10.33 3.36 10.66 2 11 C-0.30694043 7.53958935 -0.62056512 5.09789669 -1 1 C-0.67 0.67 -0.34 0.34 0 0 Z " fill="#36419E" transform="translate(101,201)"/>
<path d="M0 0 C0.33 0 0.66 0 1 0 C1.19412181 1.47831221 1.38012131 2.95769316 1.5625 4.4375 C1.66691406 5.26121094 1.77132812 6.08492188 1.87890625 6.93359375 C1.91886719 7.61550781 1.95882812 8.29742187 2 9 C1.67 9.33 1.34 9.66 1 10 C-0.69141656 9.91036938 -2.37959602 9.75422324 -4.0625 9.5625 C-4.98160156 9.46066406 -5.90070313 9.35882813 -6.84765625 9.25390625 C-7.55792969 9.17011719 -8.26820312 9.08632813 -9 9 C-9 8.67 -9 8.34 -9 8 C-6.03 8 -3.06 8 0 8 C0 5.36 0 2.72 0 0 Z " fill="#8886AA" transform="translate(116,296)"/>
<path d="M0 0 C0.99 0.33 1.98 0.66 3 1 C2.34 2.32 1.68 3.64 1 5 C0.34 5 -0.32 5 -1 5 C-1.66 6.65 -2.32 8.3 -3 10 C-3.99 9.67 -4.98 9.34 -6 9 C-5.34 9 -4.68 9 -4 9 C-3.67 7.35 -3.34 5.7 -3 4 C-2.34 4 -1.68 4 -1 4 C-0.67 2.68 -0.34 1.36 0 0 Z " fill="#686D9C" transform="translate(126,294)"/>
<path d="M0 0 C0.66 0 1.32 0 2 0 C3.98362069 2.91708924 3.9876191 4.12380904 3.625 7.75 C3.41875 8.8225 3.2125 9.895 3 11 C0.43383368 7.15075052 0.44902324 4.5650696 0 0 Z " fill="#7E79A0" transform="translate(118,227)"/>
<path d="M0 0 C0.99 0.33 1.98 0.66 3 1 C2.67 2.65 2.34 4.3 2 6 C1.401875 5.835 0.80375 5.67 0.1875 5.5 C-2.11344336 4.8885876 -2.11344336 4.8885876 -5 5 C-3.35 3.35 -1.7 1.7 0 0 Z " fill="#6266A7" transform="translate(57,223)"/>
<path d="M0 0 C2 1 2 1 3.125 4.0625 C3.41375 5.031875 3.7025 6.00125 4 7 C2.68 7.33 1.36 7.66 0 8 C-0.38063221 5.6739143 -0.71269945 3.33944736 -1 1 C-0.67 0.67 -0.34 0.34 0 0 Z " fill="#4047A0" transform="translate(339,258)"/>
<path d="M0 0 C1.670625 0.4021875 1.670625 0.4021875 3.375 0.8125 C3.705 1.4725 4.035 2.1325 4.375 2.8125 C3.715 2.8125 3.055 2.8125 2.375 2.8125 C2.375 3.4725 2.375 4.1325 2.375 4.8125 C1.385 5.1425 0.395 5.4725 -0.625 5.8125 C-0.625 4.4925 -0.625 3.1725 -0.625 1.8125 C-2.605 2.1425 -4.585 2.4725 -6.625 2.8125 C-4.5563662 -0.22960853 -3.79305704 -0.19619261 0 0 Z " fill="#47519B" transform="translate(311.625,247.1875)"/>
<path d="M0 0 C0.99 0 1.98 0 3 0 C4.80230168 3.82989106 5.19622241 6.78121808 5 11 C4.34 11 3.68 11 3 11 C2.01 7.37 1.02 3.74 0 0 Z " fill="#605883" transform="translate(105,239)"/>
<path d="M0 0 C0.33 0.66 0.66 1.32 1 2 C3.02463255 2.65213292 3.02463255 2.65213292 5 3 C5 3.66 5 4.32 5 5 C2.69 5.33 0.38 5.66 -2 6 C-1.125 1.125 -1.125 1.125 0 0 Z " fill="#55579D" transform="translate(75,234)"/>
<path d="M0 0 C0.66 0 1.32 0 2 0 C0.63055898 2.94956528 -0.87830409 5.52468811 -3 8 C-3.66 8 -4.32 8 -5 8 C-5 6.35 -5 4.7 -5 3 C-3.35 2.67 -1.7 2.34 0 2 C0 1.34 0 0.68 0 0 Z " fill="#324195" transform="translate(60,228)"/>
<path d="M0 0 C0.99 0.33 1.98 0.66 3 1 C1.44499019 4.81684226 -1.03595495 7.19195732 -4 10 C-2.40909091 3.40909091 -2.40909091 3.40909091 0 1 C0 0.67 0 0.34 0 0 Z " fill="#7174A6" transform="translate(146,203)"/>
<path d="M0 0 C4.14133583 0.39069206 7.35443121 1.02833476 11 3 C10.37351562 2.96519531 9.74703125 2.93039063 9.1015625 2.89453125 C8.28429687 2.86746094 7.46703125 2.84039062 6.625 2.8125 C5.40683594 2.76029297 5.40683594 2.76029297 4.1640625 2.70703125 C3.44992188 2.80371094 2.73578125 2.90039062 2 3 C1.34 3.99 0.68 4.98 0 6 C-0.38218767 4.34385343 -0.71395102 2.67542976 -1 1 C-0.67 0.67 -0.34 0.34 0 0 Z " fill="#7B7CA9" transform="translate(92,188)"/>
<path d="M0 0 C0.66 1.32 1.32 2.64 2 4 C-1.63 4 -5.26 4 -9 4 C-9 3.34 -9 2.68 -9 2 C-6.03 2 -3.06 2 0 2 C0 1.34 0 0.68 0 0 Z " fill="#686997" transform="translate(236,283)"/>
<path d="M0 0 C0.66 0 1.32 0 2 0 C2.39063507 1.43333021 2.76198474 2.87192679 3.125 4.3125 C3.33382813 5.11300781 3.54265625 5.91351563 3.7578125 6.73828125 C4 9 4 9 2 12 C0.00214565 7.8794254 -0.17835515 4.54805635 0 0 Z " fill="#62669B" transform="translate(372,266)"/>
<path d="M0 0 C2.97 0.495 2.97 0.495 6 1 C6.33 2.32 6.66 3.64 7 5 C2.545 4.01 2.545 4.01 -2 3 C-1.34 2.67 -0.68 2.34 0 2 C0 1.34 0 0.68 0 0 Z " fill="#626395" transform="translate(99,236)"/>
<path d="M0 0 C1.875 0.125 1.875 0.125 4 1 C5.40666215 4.01427603 6.14845728 6.05977053 5.625 9.375 C5.41875 9.91125 5.2125 10.4475 5 11 C4.731875 10.443125 4.46375 9.88625 4.1875 9.3125 C2.99300335 6.91066602 2.99300335 6.91066602 1.375 4.375 C0 2 0 2 0 0 Z " fill="#66699A" transform="translate(149,208)"/>
<path d="M0 0 C1.60568666 0.28317926 3.20952047 0.57687791 4.8125 0.875 C6.15248047 1.11863281 6.15248047 1.11863281 7.51953125 1.3671875 C10 2 10 2 13 4 C8.07872966 4.16682272 4.49656104 4.24828052 0 2 C0 1.34 0 0.68 0 0 Z " fill="#6A6AA1" transform="translate(107,192)"/>
<path d="M0 0 C1.4540625 0.0309375 1.4540625 0.0309375 2.9375 0.0625 C1.79296875 1.55078125 1.79296875 1.55078125 -0.0625 3.0625 C-2.76171875 3.35546875 -2.76171875 3.35546875 -5.75 3.25 C-6.74386719 3.22292969 -7.73773438 3.19585937 -8.76171875 3.16796875 C-9.52097656 3.13316406 -10.28023438 3.09835937 -11.0625 3.0625 C-11.0625 2.7325 -11.0625 2.4025 -11.0625 2.0625 C-9.928125 1.918125 -8.79375 1.77375 -7.625 1.625 C-3.97252634 1.04829363 -3.54680005 0.07238367 0 0 Z " fill="#7576A7" transform="translate(358.0625,284.9375)"/>
<path d="M0 0 C0.99 0.33 1.98 0.66 3 1 C1.68 3.31 0.36 5.62 -1 8 C-2.0625 6.1875 -2.0625 6.1875 -3 4 C-2.67 3.01 -2.34 2.02 -2 1 C-1.34 1.33 -0.68 1.66 0 2 C0 1.34 0 0.68 0 0 Z " fill="#6167A0" transform="translate(84,227)"/>
<path d="M0 0 C2.31 0 4.62 0 7 0 C7 0.66 7 1.32 7 2 C7.66 2.33 8.32 2.66 9 3 C6.03 3 3.06 3 0 3 C0 2.01 0 1.02 0 0 Z " fill="#6A6689" transform="translate(95,221)"/>
<path d="M0 0 C1.98 0.99 1.98 0.99 4 2 C3.34 4.97 2.68 7.94 2 11 C1.67 11 1.34 11 1 11 C0.67 7.37 0.34 3.74 0 0 Z " fill="#363882" transform="translate(401,262)"/>
<path d="M0 0 C2.64 0 5.28 0 8 0 C8 0.66 8 1.32 8 2 C7.34 2 6.68 2 6 2 C6 2.66 6 3.32 6 4 C4.35 3.67 2.7 3.34 1 3 C0.67 2.01 0.34 1.02 0 0 Z " fill="#333889" transform="translate(401,248)"/>
<path d="M0 0 C0.66 0 1.32 0 2 0 C2 1.65 2 3.3 2 5 C3.65 5 5.3 5 7 5 C6.67 5.66 6.34 6.32 6 7 C4.33388095 7.042721 2.66617115 7.04063832 1 7 C0 6 0 6 -0.0625 2.9375 C-0.041875 1.968125 -0.02125 0.99875 0 0 Z " fill="#474B87" transform="translate(287,242)"/>
<path d="M0 0 C1.0625 1.875 1.0625 1.875 2 4 C1.67 4.66 1.34 5.32 1 6 C0.34 6 -0.32 6 -1 6 C-1 6.66 -1 7.32 -1 8 C-1.99 7.67 -2.98 7.34 -4 7 C-4 6.01 -4 5.02 -4 4 C-2.68 4 -1.36 4 0 4 C0 2.68 0 1.36 0 0 Z " fill="#6B6FA1" transform="translate(367,276)"/>
<path d="M0 0 C0.61875 0.78375 1.2375 1.5675 1.875 2.375 C3.89858661 4.96837647 3.89858661 4.96837647 6 7 C4.35 7.33 2.7 7.66 1 8 C-0.35439668 5.29120665 -0.06501451 2.99066732 0 0 Z " fill="#696AA3" transform="translate(190,270)"/>
<path d="M0 0 C1.65 0 3.3 0 5 0 C5.33 0.66 5.66 1.32 6 2 C7.32 2.66 8.64 3.32 10 4 C6.37 3.67 2.74 3.34 -1 3 C-0.67 2.01 -0.34 1.02 0 0 Z " fill="#6F71AA" transform="translate(57,235)"/>
<path d="M0 0 C0.66 0 1.32 0 2 0 C3.76462683 3.08809695 4 4.23312136 4 8 C3.01 8.33 2.02 8.66 1 9 C0.67 6.03 0.34 3.06 0 0 Z " fill="#4B4A87" transform="translate(114,222)"/>
<path d="M0 0 C0.33 1.32 0.66 2.64 1 4 C0.01 4 -0.98 4 -2 4 C-2.66 5.65 -3.32 7.3 -4 9 C-4.99 8.67 -5.98 8.34 -7 8 C-4.69 5.36 -2.38 2.72 0 0 Z " fill="#7679AB" transform="translate(72,206)"/>
<path d="M0 0 C0.598125 0.185625 1.19625 0.37125 1.8125 0.5625 C4.16408762 1.22093687 4.16408762 1.22093687 7 0 C7 0.99 7 1.98 7 3 C4.03 3 1.06 3 -2 3 C-1.34 2.01 -0.68 1.02 0 0 Z " fill="#353878" transform="translate(389,284)"/>
<path d="M0 0 C1.9375 0.75 1.9375 0.75 4 2 C4.625 4.0625 4.625 4.0625 5 6 C5.66 6.33 6.32 6.66 7 7 C6.67 7.66 6.34 8.32 6 9 C0.42857143 3.85714286 0.42857143 3.85714286 0 0 Z " fill="#7E7FAD" transform="translate(336,276)"/>
<path d="M0 0 C3.39914975 1.13304992 4.05254451 2.12518475 6 5 C5.01 5.33 4.02 5.66 3 6 C2.67 5.01 2.34 4.02 2 3 C1.01 3.33 0.02 3.66 -1 4 C-1.66 3.34 -2.32 2.68 -3 2 C-2.01 1.34 -1.02 0.68 0 0 Z " fill="#797AA7" transform="translate(307,274)"/>
<path d="M0 0 C0.99 0 1.98 0 3 0 C2.67 1.32 2.34 2.64 2 4 C-0.31 4.33 -2.62 4.66 -5 5 C-4.67 4.01 -4.34 3.02 -4 2 C-3.01 2 -2.02 2 -1 2 C-0.67 1.34 -0.34 0.68 0 0 Z " fill="#35409A" transform="translate(322,248)"/>
<path d="M0 0 C2.31 0.33 4.62 0.66 7 1 C7 1.99 7 2.98 7 4 C5.02 4 3.04 4 1 4 C0.67 2.68 0.34 1.36 0 0 Z " fill="#5D5F95" transform="translate(95,247)"/>
<path d="M0 0 C0 3.16880694 -0.2058242 4.43689172 -2 7 C-4.625 7.75 -4.625 7.75 -7 8 C-6.02133662 6.85373678 -5.04205413 5.70800212 -4.0625 4.5625 C-3.51722656 3.92441406 -2.97195312 3.28632813 -2.41015625 2.62890625 C-1.63204305 1.73008851 -0.84063472 0.84063472 0 0 Z " fill="#6766A1" transform="translate(119,242)"/>
<path d="M0 0 C2.12046792 3.53411321 2.53199289 6.94393835 3 11 C2.01 11.495 2.01 11.495 1 12 C-0.3271261 8.0186217 -0.06915913 4.14954773 0 0 Z " fill="#6F72A6" transform="translate(158,230)"/>
<path d="M0 0 C1.98 0 3.96 0 6 0 C5.67 1.32 5.34 2.64 5 4 C3.35 3.67 1.7 3.34 0 3 C0 2.01 0 1.02 0 0 Z " fill="#3F448C" transform="translate(76,233)"/>
<path d="M0 0 C2.97 0.495 2.97 0.495 6 1 C5.67 1.99 5.34 2.98 5 4 C5.99 4.33 6.98 4.66 8 5 C6.02 5.33 4.04 5.66 2 6 C2.33 4.68 2.66 3.36 3 2 C2.01 1.34 1.02 0.68 0 0 Z " fill="#494F9F" transform="translate(197,295)"/>
<path d="M0 0 C0.78375 0.04125 1.5675 0.0825 2.375 0.125 C1.75625 0.186875 1.1375 0.24875 0.5 0.3125 C-1.89617929 0.94240446 -1.89617929 0.94240446 -2.75 3.625 C-3.03875 4.45 -3.3275 5.275 -3.625 6.125 C-4.615 6.62 -4.615 6.62 -5.625 7.125 C-4.53409091 0.21590909 -4.53409091 0.21590909 0 0 Z " fill="#6E71A7" transform="translate(343.625,251.875)"/>
<path d="M0 0 C2.97 0.495 2.97 0.495 6 1 C6 1.66 6 2.32 6 3 C5.01 3.66 4.02 4.32 3 5 C2.34 5.99 1.68 6.98 1 8 C0.67 5.36 0.34 2.72 0 0 Z " fill="#696BA4" transform="translate(189,255)"/>
<path d="M0 0 C1.43088528 2.86177057 0.59991697 4.93375773 0 8 C-1.32 8 -2.64 8 -4 8 C-3.40072174 4.64404172 -2.15377564 2.62198774 0 0 Z " fill="#7F80A7" transform="translate(51,229)"/>
<path d="M0 0 C0.66 0.66 1.32 1.32 2 2 C0.02 4.97 0.02 4.97 -2 8 C-2.66 7.34 -3.32 6.68 -4 6 C-3.67 5.01 -3.34 4.02 -3 3 C-2.34 3 -1.68 3 -1 3 C-0.67 2.01 -0.34 1.02 0 0 Z " fill="#5D6097" transform="translate(132,286)"/>
<path d="M0 0 C2.97 0.495 2.97 0.495 6 1 C6 1.66 6 2.32 6 3 C3.1875 3.625 3.1875 3.625 0 4 C-0.99 3.34 -1.98 2.68 -3 2 C-2.01 2 -1.02 2 0 2 C0 1.34 0 0.68 0 0 Z " fill="#585C9D" transform="translate(321,283)"/>
<path d="M0 0 C1.32 0.33 2.64 0.66 4 1 C2.02 3.97 2.02 3.97 0 7 C-0.66 5.68 -1.32 4.36 -2 3 C-1.34 2.01 -0.68 1.02 0 0 Z " fill="#585A93" transform="translate(157,248)"/>
<path d="M0 0 C0.33 0 0.66 0 1 0 C1.33 2.64 1.66 5.28 2 8 C0.68 8.33 -0.64 8.66 -2 9 C-2.33 8.34 -2.66 7.68 -3 7 C-2.34 6.67 -1.68 6.34 -1 6 C-0.34227572 2.97065509 -0.34227572 2.97065509 0 0 Z " fill="#8983A9" transform="translate(93,239)"/>
<path d="M0 0 C0.66 0 1.32 0 2 0 C1.42647107 3.87132028 -0.48704352 6.08172796 -3 9 C-3 7.68 -3 6.36 -3 5 C-2.34 5 -1.68 5 -1 5 C-0.67 3.35 -0.34 1.7 0 0 Z " fill="#6D70A3" transform="translate(92,217)"/>
<path d="M0 0 C2.35448165 2.55068845 2.98327924 3.71017358 3.1875 7.25 C3.125625 8.1575 3.06375 9.065 3 10 C0.50939295 7.50939295 -0.08717042 5.37044767 -1 2 C-0.67 1.34 -0.34 0.68 0 0 Z " fill="#7479AC" transform="translate(94,194)"/>
<path d="M0 0 C7.50769231 -0.36923077 7.50769231 -0.36923077 10 1.5 C10.495 2.2425 10.495 2.2425 11 3 C6.94393835 2.53199289 3.53411321 2.12046792 0 0 Z " fill="#6E6EA8" transform="translate(66,294)"/>
<path d="M0 0 C1.32 0.66 2.64 1.32 4 2 C4 2.99 4 3.98 4 5 C1.03 4.505 1.03 4.505 -2 4 C-1.34 2.68 -0.68 1.36 0 0 Z " fill="#5D60A2" transform="translate(313,267)"/>
<path d="M0 0 C2.31 0.33 4.62 0.66 7 1 C6.67 2.65 6.34 4.3 6 6 C3.97945196 4.35830472 1.97956942 2.69088222 0 1 C0 0.67 0 0.34 0 0 Z " fill="#6467A1" transform="translate(395,257)"/>
<path d="M0 0 C0.33 0.66 0.66 1.32 1 2 C2.32 2 3.64 2 5 2 C5 2.99 5 3.98 5 5 C0.25 4.25 0.25 4.25 -2 2 C-1.34 2 -0.68 2 0 2 C0 1.34 0 0.68 0 0 Z " fill="#36409E" transform="translate(438,251)"/>
<path d="M0 0 C2.46800047 1.15173355 4.04783565 2.04783565 6 4 C5.67 4.99 5.34 5.98 5 7 C3.29115995 5.37660195 1.62553283 3.70680947 0 2 C0 1.34 0 0.68 0 0 Z " fill="#565890" transform="translate(361,250)"/>
</svg>
